<?xml version="1.0" encoding="utf-8" standalone="no"?>
<!DOCTYPE svg PUBLIC "-//W3C//DTD SVG 1.1//EN"
  "http://www.w3.org/Graphics/SVG/1.1/DTD/svg11.dtd">
<!-- Created with matplotlib (https://matplotlib.org/) -->
<svg height="396.795469pt" version="1.1" viewBox="0 0 845.890547 396.795469" width="845.890547pt" xmlns="http://www.w3.org/2000/svg" xmlns:xlink="http://www.w3.org/1999/xlink">
 <metadata>
  <rdf:RDF xmlns:cc="http://creativecommons.org/ns#" xmlns:dc="http://purl.org/dc/elements/1.1/" xmlns:rdf="http://www.w3.org/1999/02/22-rdf-syntax-ns#">
   <cc:Work>
    <dc:type rdf:resource="http://purl.org/dc/dcmitype/StillImage"/>
    <dc:date>2023-01-09T20:33:12.815948</dc:date>
    <dc:format>image/svg+xml</dc:format>
    <dc:creator>
     <cc:Agent>
      <dc:title>Matplotlib v3.3.1, https://matplotlib.org/</dc:title>
     </cc:Agent>
    </dc:creator>
   </cc:Work>
  </rdf:RDF>
 </metadata>
 <defs>
  <style type="text/css">*{stroke-linecap:butt;stroke-linejoin:round;}</style>
 </defs>
 <g id="figure_1">
  <g id="patch_1">
   <path d="M 0 396.795469 
L 845.890547 396.795469 
L 845.890547 0 
L 0 0 
z
" style="fill:#ffffff;"/>
  </g>
  <g id="axes_1">
   <g id="patch_2">
    <path d="M 64.690547 338.368594 
L 419.781456 338.368594 
L 419.781456 5.728594 
L 64.690547 5.728594 
z
" style="fill:#ffffff;"/>
   </g>
   <g id="matplotlib.axis_1">
    <g id="xtick_1">
     <g id="line2d_1">
      <defs>
       <path d="M 0 0 
L 0 6 
" id="mabc89a16c5" style="stroke:#262626;stroke-width:1.25;"/>
      </defs>
      <g>
       <use style="fill:#262626;stroke:#262626;stroke-width:1.25;" x="80.831043" xlink:href="#mabc89a16c5" y="338.368594"/>
      </g>
     </g>
     <g id="text_1">
      <!-- 0 -->
      <g style="fill:#262626;" transform="translate(76.706043 359.325781)scale(0.165 -0.165)">
       <defs>
        <path d="M 3.609375 32.71875 
Q 3.609375 44.046875 7.03125 52.21875 
Q 10.453125 60.40625 16.109375 64.40625 
Q 20.515625 67.578125 25.203125 67.578125 
Q 32.8125 67.578125 38.875 59.8125 
Q 46.4375 50.203125 46.4375 33.734375 
Q 46.4375 22.21875 43.109375 14.15625 
Q 39.796875 6.109375 34.640625 2.46875 
Q 29.5 -1.171875 24.703125 -1.171875 
Q 15.234375 -1.171875 8.9375 10.015625 
Q 3.609375 19.4375 3.609375 32.71875 
z
M 13.1875 31.5 
Q 13.1875 17.828125 16.546875 9.1875 
Q 19.34375 1.90625 24.859375 1.90625 
Q 27.484375 1.90625 30.3125 4.265625 
Q 33.15625 6.640625 34.625 12.203125 
Q 36.859375 20.609375 36.859375 35.890625 
Q 36.859375 47.21875 34.515625 54.78125 
Q 32.765625 60.40625 29.984375 62.75 
Q 27.984375 64.359375 25.140625 64.359375 
Q 21.828125 64.359375 19.234375 61.375 
Q 15.71875 57.328125 14.453125 48.625 
Q 13.1875 39.9375 13.1875 31.5 
z
" id="TimesNewRomanPSMT-48"/>
       </defs>
       <use xlink:href="#TimesNewRomanPSMT-48"/>
      </g>
     </g>
    </g>
    <g id="xtick_2">
     <g id="line2d_2">
      <g>
       <use style="fill:#262626;stroke:#262626;stroke-width:1.25;" x="145.393026" xlink:href="#mabc89a16c5" y="338.368594"/>
      </g>
     </g>
     <g id="text_2">
      <!-- 2 -->
      <g style="fill:#262626;" transform="translate(141.268026 359.325781)scale(0.165 -0.165)">
       <defs>
        <path d="M 45.84375 12.75 
L 41.21875 0 
L 2.15625 0 
L 2.15625 1.8125 
Q 19.390625 17.53125 26.421875 27.484375 
Q 33.453125 37.453125 33.453125 45.703125 
Q 33.453125 52 29.59375 56.046875 
Q 25.734375 60.109375 20.359375 60.109375 
Q 15.484375 60.109375 11.59375 57.25 
Q 7.71875 54.390625 5.859375 48.875 
L 4.046875 48.875 
Q 5.28125 57.90625 10.328125 62.734375 
Q 15.375 67.578125 22.953125 67.578125 
Q 31 67.578125 36.390625 62.40625 
Q 41.796875 57.234375 41.796875 50.203125 
Q 41.796875 45.171875 39.453125 40.140625 
Q 35.84375 32.234375 27.734375 23.390625 
Q 15.578125 10.109375 12.546875 7.375 
L 29.828125 7.375 
Q 35.109375 7.375 37.234375 7.765625 
Q 39.359375 8.15625 41.0625 9.34375 
Q 42.78125 10.546875 44.046875 12.75 
z
" id="TimesNewRomanPSMT-50"/>
       </defs>
       <use xlink:href="#TimesNewRomanPSMT-50"/>
      </g>
     </g>
    </g>
    <g id="xtick_3">
     <g id="line2d_3">
      <g>
       <use style="fill:#262626;stroke:#262626;stroke-width:1.25;" x="209.95501" xlink:href="#mabc89a16c5" y="338.368594"/>
      </g>
     </g>
     <g id="text_3">
      <!-- 4 -->
      <g style="fill:#262626;" transform="translate(205.83001 359.325781)scale(0.165 -0.165)">
       <defs>
        <path d="M 46.53125 24.421875 
L 46.53125 17.484375 
L 37.640625 17.484375 
L 37.640625 0 
L 29.59375 0 
L 29.59375 17.484375 
L 1.5625 17.484375 
L 1.5625 23.734375 
L 32.28125 67.578125 
L 37.640625 67.578125 
L 37.640625 24.421875 
z
M 29.59375 24.421875 
L 29.59375 57.28125 
L 6.34375 24.421875 
z
" id="TimesNewRomanPSMT-52"/>
       </defs>
       <use xlink:href="#TimesNewRomanPSMT-52"/>
      </g>
     </g>
    </g>
    <g id="xtick_4">
     <g id="line2d_4">
      <g>
       <use style="fill:#262626;stroke:#262626;stroke-width:1.25;" x="274.516993" xlink:href="#mabc89a16c5" y="338.368594"/>
      </g>
     </g>
     <g id="text_4">
      <!-- 6 -->
      <g style="fill:#262626;" transform="translate(270.391993 359.325781)scale(0.165 -0.165)">
       <defs>
        <path d="M 44.828125 67.578125 
L 44.828125 65.765625 
Q 38.375 65.140625 34.296875 63.203125 
Q 30.21875 61.28125 26.234375 57.328125 
Q 22.265625 53.375 19.65625 48.515625 
Q 17.046875 43.65625 15.28125 36.96875 
Q 22.3125 41.796875 29.390625 41.796875 
Q 36.1875 41.796875 41.15625 36.328125 
Q 46.140625 30.859375 46.140625 22.265625 
Q 46.140625 13.96875 41.109375 7.125 
Q 35.0625 -1.171875 25.09375 -1.171875 
Q 18.3125 -1.171875 13.578125 3.328125 
Q 4.296875 12.0625 4.296875 25.984375 
Q 4.296875 34.859375 7.859375 42.859375 
Q 11.421875 50.875 18.03125 57.078125 
Q 24.65625 63.28125 30.703125 65.421875 
Q 36.765625 67.578125 42 67.578125 
z
M 14.453125 33.40625 
Q 13.578125 26.8125 13.578125 22.75 
Q 13.578125 18.0625 15.3125 12.5625 
Q 17.046875 7.078125 20.453125 3.859375 
Q 22.953125 1.5625 26.515625 1.5625 
Q 30.765625 1.5625 34.109375 5.5625 
Q 37.453125 9.578125 37.453125 17 
Q 37.453125 25.34375 34.125 31.4375 
Q 30.8125 37.546875 24.703125 37.546875 
Q 22.859375 37.546875 20.734375 36.765625 
Q 18.609375 35.984375 14.453125 33.40625 
z
" id="TimesNewRomanPSMT-54"/>
       </defs>
       <use xlink:href="#TimesNewRomanPSMT-54"/>
      </g>
     </g>
    </g>
    <g id="xtick_5">
     <g id="line2d_5">
      <g>
       <use style="fill:#262626;stroke:#262626;stroke-width:1.25;" x="339.078977" xlink:href="#mabc89a16c5" y="338.368594"/>
      </g>
     </g>
     <g id="text_5">
      <!-- 8 -->
      <g style="fill:#262626;" transform="translate(334.953977 359.325781)scale(0.165 -0.165)">
       <defs>
        <path d="M 19.1875 33.34375 
Q 11.328125 39.796875 9.046875 43.703125 
Q 6.78125 47.609375 6.78125 51.8125 
Q 6.78125 58.25 11.765625 62.90625 
Q 16.75 67.578125 25 67.578125 
Q 33.015625 67.578125 37.890625 63.234375 
Q 42.78125 58.890625 42.78125 53.328125 
Q 42.78125 49.609375 40.140625 45.75 
Q 37.5 41.890625 29.15625 36.671875 
Q 37.75 30.03125 40.53125 26.21875 
Q 44.234375 21.234375 44.234375 15.71875 
Q 44.234375 8.734375 38.90625 3.78125 
Q 33.59375 -1.171875 24.953125 -1.171875 
Q 15.53125 -1.171875 10.25 4.734375 
Q 6.0625 9.46875 6.0625 15.09375 
Q 6.0625 19.484375 9.015625 23.796875 
Q 11.96875 28.125 19.1875 33.34375 
z
M 26.859375 38.578125 
Q 32.71875 43.84375 34.28125 46.890625 
Q 35.84375 49.953125 35.84375 53.8125 
Q 35.84375 58.9375 32.953125 61.84375 
Q 30.078125 64.75 25.09375 64.75 
Q 20.125 64.75 17 61.859375 
Q 13.875 58.984375 13.875 55.125 
Q 13.875 52.59375 15.15625 50.046875 
Q 16.453125 47.515625 18.84375 45.21875 
z
M 21.484375 31.5 
Q 17.4375 28.078125 15.484375 24.046875 
Q 13.53125 20.015625 13.53125 15.328125 
Q 13.53125 9.03125 16.96875 5.25 
Q 20.40625 1.46875 25.734375 1.46875 
Q 31 1.46875 34.171875 4.4375 
Q 37.359375 7.421875 37.359375 11.671875 
Q 37.359375 15.1875 35.5 17.96875 
Q 32.03125 23.140625 21.484375 31.5 
z
" id="TimesNewRomanPSMT-56"/>
       </defs>
       <use xlink:href="#TimesNewRomanPSMT-56"/>
      </g>
     </g>
    </g>
    <g id="xtick_6">
     <g id="line2d_6">
      <g>
       <use style="fill:#262626;stroke:#262626;stroke-width:1.25;" x="403.64096" xlink:href="#mabc89a16c5" y="338.368594"/>
      </g>
     </g>
     <g id="text_6">
      <!-- 10 -->
      <g style="fill:#262626;" transform="translate(395.39096 359.325781)scale(0.165 -0.165)">
       <defs>
        <path d="M 11.71875 59.71875 
L 27.828125 67.578125 
L 29.4375 67.578125 
L 29.4375 11.671875 
Q 29.4375 6.109375 29.90625 4.734375 
Q 30.375 3.375 31.828125 2.640625 
Q 33.296875 1.90625 37.796875 1.8125 
L 37.796875 0 
L 12.890625 0 
L 12.890625 1.8125 
Q 17.578125 1.90625 18.9375 2.609375 
Q 20.3125 3.328125 20.84375 4.515625 
Q 21.390625 5.71875 21.390625 11.671875 
L 21.390625 47.40625 
Q 21.390625 54.640625 20.90625 56.6875 
Q 20.5625 58.25 19.65625 58.984375 
Q 18.75 59.71875 17.484375 59.71875 
Q 15.671875 59.71875 12.453125 58.203125 
z
" id="TimesNewRomanPSMT-49"/>
       </defs>
       <use xlink:href="#TimesNewRomanPSMT-49"/>
       <use x="50" xlink:href="#TimesNewRomanPSMT-48"/>
      </g>
     </g>
    </g>
    <g id="text_7">
     <!-- 横坐标 -->
     <g style="fill:#262626;" transform="translate(215.236001 380.591484)scale(0.18 -0.18)">
      <defs>
       <path d="M 2.59375 8.546875 
Q 6.390625 15.828125 8.8125 21.625 
Q 11.234375 27.4375 13.765625 36.21875 
Q 16.3125 45.015625 16.65625 47.171875 
L 17.4375 52.203125 
L 13.671875 52.203125 
Q 10.15625 52.203125 6.6875 50.6875 
L 2.59375 54.734375 
L 9.03125 54.546875 
L 18.65625 54.546875 
L 18.65625 65.765625 
L 18.0625 77.09375 
L 26.265625 73.484375 
Q 27.34375 73 27.390625 72.703125 
Q 27.4375 72.40625 26.515625 71.734375 
L 23.78125 69.625 
L 23.78125 54.546875 
L 28.765625 54.546875 
L 33.015625 60.015625 
L 39.65625 53.21875 
Q 40.09375 52.6875 39.96875 52.4375 
Q 39.84375 52.203125 39.15625 52.203125 
L 23.78125 52.203125 
L 23.78125 38.71875 
Q 32.90625 34.421875 34.296875 33.484375 
Q 35.6875 32.5625 36.21875 31.734375 
Q 36.765625 30.90625 36.765625 29.25 
Q 36.71875 28.21875 36.203125 25.84375 
Q 35.6875 23.484375 33.6875 23.53125 
Q 32.671875 23.53125 32.296875 24.0625 
Q 31.9375 24.609375 31.78125 25.203125 
L 31.34375 26.765625 
Q 30.8125 28.265625 29.265625 30.921875 
Q 27.734375 33.59375 26.515625 34.671875 
L 23.78125 37.109375 
L 23.78125 -2.546875 
L 24.46875 -13.140625 
Q 23.6875 -13.671875 22.96875 -14.0625 
Q 22.265625 -14.453125 18.0625 -15.625 
L 18.65625 -3.03125 
L 18.65625 34.71875 
Q 17 30.71875 14.15625 24.484375 
Q 11.328125 18.265625 3.71875 7.8125 
z
M 53.5625 4.640625 
L 60.359375 -0.140625 
Q 61.28125 -0.828125 61.25 -1.1875 
Q 61.234375 -1.5625 60.109375 -1.65625 
L 57.234375 -2 
Q 52.9375 -4.6875 47.21875 -7.828125 
Q 41.5 -10.984375 26.703125 -15.828125 
L 26.265625 -14.65625 
Q 36.28125 -9.671875 42.03125 -5.515625 
Q 47.796875 -1.375 53.5625 4.640625 
z
M 50.046875 47.953125 
L 50.046875 60.5 
L 46.921875 60.5 
Q 43.0625 60.5 40.28125 59.03125 
L 36.140625 63.03125 
L 42.78125 62.796875 
L 50.046875 62.796875 
L 50.046875 67.328125 
L 49.609375 76.703125 
L 57.234375 73.640625 
Q 58.546875 73.046875 58.5625 72.796875 
Q 58.59375 72.5625 57.71875 71.96875 
L 55.421875 70.453125 
L 55.421875 62.796875 
L 71.625 62.796875 
L 71.625 67.4375 
L 71.09375 76.65625 
L 78.765625 73.140625 
Q 80.078125 72.515625 80.09375 72.234375 
Q 80.125 71.96875 79.34375 71.484375 
L 77 69.96875 
L 77 62.796875 
L 83.203125 62.796875 
L 87.546875 67.96875 
L 93.84375 61.71875 
Q 94.578125 60.9375 94.421875 60.71875 
Q 94.28125 60.5 93.65625 60.5 
L 77 60.5 
L 77 47.953125 
L 86.140625 47.953125 
L 91.109375 53.375 
L 97.21875 47.171875 
Q 98 46.34375 97.84375 46 
Q 97.703125 45.65625 96.78125 45.65625 
L 65.96875 45.65625 
L 65.96875 35.453125 
L 79.59375 35.40625 
L 83.25 39.546875 
L 88.578125 35.109375 
Q 89.546875 34.28125 89.515625 33.859375 
Q 89.5 33.453125 88.671875 32.90625 
L 86.140625 31.203125 
L 86.140625 13.03125 
L 86.765625 5.421875 
Q 86.03125 5.03125 85.78125 4.90625 
Q 85.546875 4.78125 82.671875 3.90625 
L 80.765625 3.328125 
L 80.765625 6.546875 
L 46.578125 6.546875 
L 46.578125 3.125 
Q 44.28125 2.09375 40.765625 1.125 
L 41.359375 10.15625 
L 41.359375 28.765625 
L 40.765625 39.5 
L 46.96875 35.5 
L 60.546875 35.453125 
L 60.546875 45.65625 
L 42.78125 45.65625 
Q 38.375 45.65625 37.0625 44.96875 
L 35.359375 44.1875 
L 31.0625 48.25 
L 37.84375 47.953125 
z
M 46.578125 8.84375 
L 60.546875 8.84375 
L 60.546875 19.875 
L 46.578125 19.875 
z
M 46.578125 21.96875 
L 60.546875 21.96875 
L 60.546875 33.15625 
L 46.578125 33.15625 
z
M 55.421875 47.953125 
L 71.625 47.953125 
L 71.625 60.5 
L 55.421875 60.5 
z
M 65.96875 8.84375 
L 80.765625 8.84375 
L 80.765625 19.875 
L 65.96875 19.875 
z
M 65.96875 21.96875 
L 80.765625 21.96875 
L 80.765625 33.15625 
L 65.96875 33.15625 
z
M 67.96875 1.375 
L 68.453125 2.4375 
Q 78.5625 -0.4375 84.765625 -3.046875 
Q 90.96875 -5.671875 91.890625 -7.765625 
Q 92.828125 -9.859375 92.71875 -11.671875 
Q 92.53125 -14.3125 91.484375 -15.15625 
Q 90.4375 -16.015625 89.65625 -15.921875 
Q 88.8125 -15.875 86.78125 -13.03125 
Q 84.765625 -10.203125 80.828125 -6.765625 
Q 76.90625 -3.328125 67.96875 1.375 
z
" id="UNAVAILABLE-27178"/>
       <path d="M 3.375 -7.953125 
L 7.03125 -8.203125 
L 46.578125 -8.203125 
L 46.578125 12.015625 
L 24.859375 12.0625 
Q 21.875 12.0625 19.578125 10.75 
L 15.09375 14.796875 
L 18.890625 14.5 
L 46.578125 14.5 
L 46.578125 59.421875 
L 46.046875 76.5625 
L 55.375 72.65625 
Q 56.34375 72.21875 56.359375 71.953125 
Q 56.390625 71.6875 55.375 70.75 
L 52.875 68.5 
L 52.875 14.5 
L 72.796875 14.5 
L 78.65625 21.234375 
L 86.140625 13.671875 
Q 87.15625 12.546875 87.03125 12.296875 
Q 86.921875 12.0625 85.546875 12.0625 
L 52.875 12.0625 
L 52.875 -8.203125 
L 83.109375 -8.203125 
L 88.328125 -1.5625 
L 96.578125 -9.671875 
Q 97.015625 -10.15625 96.9375 -10.421875 
Q 96.875 -10.6875 95.65625 -10.6875 
L 15.328125 -10.6875 
Q 11.71875 -10.6875 8.0625 -12.25 
z
M 25.25 52 
Q 33.203125 45.015625 35.671875 42.5 
Q 38.140625 39.984375 39.140625 38.171875 
Q 40.140625 36.375 40.203125 34.953125 
Q 40.28125 33.546875 39.40625 31.734375 
Q 38.671875 30.21875 37.6875 29.265625 
Q 36.71875 28.328125 36.03125 28.421875 
Q 35.640625 28.421875 35.109375 28.765625 
Q 34.578125 29.109375 33.28125 33.5625 
Q 31.984375 38.03125 30.25 41.328125 
Q 28.515625 44.625 24.359375 50.046875 
Q 21.140625 43.359375 17.890625 37.6875 
Q 14.65625 32.03125 5.71875 21.625 
L 4.78125 22.515625 
Q 8.5 28.328125 11.296875 33.375 
Q 14.109375 38.421875 17.015625 46.328125 
Q 19.921875 54.25 21 58 
Q 22.078125 61.765625 23.96875 71.140625 
L 32.46875 66.796875 
Q 33.84375 66.0625 33.859375 65.75 
Q 33.890625 65.4375 32.71875 64.796875 
L 29.828125 63.1875 
Q 27.15625 56.34375 25.25 52 
z
M 71.828125 51.265625 
Q 82.234375 45.0625 85.40625 42.546875 
Q 88.578125 40.046875 89.578125 38.3125 
Q 90.578125 36.578125 90.625 35.03125 
Q 90.671875 33.5 90.09375 31.6875 
Q 89.359375 29.640625 88.359375 28.640625 
Q 87.359375 27.640625 86.515625 27.59375 
Q 85.6875 27.546875 84.515625 29.984375 
Q 84.28125 30.421875 83.03125 33.390625 
Q 81.78125 36.375 79.46875 40.109375 
Q 77.15625 43.84375 70.796875 49.03125 
Q 62.40625 33.34375 59.328125 29.15625 
L 56.203125 24.8125 
L 55.21875 25.78125 
Q 58.25 31.109375 60.171875 35.515625 
Q 62.109375 39.9375 63.25 43.203125 
Q 64.40625 46.484375 66.640625 53.6875 
Q 68.890625 60.890625 69.234375 62.59375 
L 70.796875 70.453125 
L 80.03125 65.671875 
Q 80.671875 65.28125 80.609375 64.96875 
Q 80.5625 64.65625 79.890625 64.3125 
L 76.515625 62.546875 
z
" id="UNAVAILABLE-22352"/>
       <path d="M 3.859375 11.234375 
Q 6.15625 15.484375 8.671875 20.4375 
Q 11.1875 25.390625 14.3125 33.734375 
Q 17.4375 42.09375 18.5 46.140625 
L 20.125 52.046875 
L 15.09375 52.046875 
Q 11.328125 52.046875 8.59375 50.828125 
L 4.34375 54.59375 
L 10.359375 54.390625 
L 21.234375 54.390625 
L 21.234375 64.5 
L 20.5625 76.703125 
L 29.15625 73.390625 
Q 30.421875 72.859375 30.515625 72.578125 
Q 30.609375 72.3125 29.15625 71.296875 
L 26.609375 69.53125 
L 26.609375 54.390625 
L 31.5 54.390625 
L 36.578125 60.015625 
L 42.390625 53.375 
Q 43.109375 52.484375 43.03125 52.265625 
Q 42.96875 52.046875 42.390625 52.046875 
L 26.609375 52.046875 
L 26.609375 37.890625 
Q 28.859375 37.0625 30.90625 36.296875 
Q 32.953125 35.546875 35.640625 33.9375 
Q 38.328125 32.328125 38.171875 29.484375 
Q 38.03125 26.65625 36.8125 25.609375 
Q 35.59375 24.5625 34.71875 24.796875 
Q 33.84375 25.046875 32.90625 27.09375 
Q 31.984375 29.15625 30.984375 31.046875 
Q 29.984375 32.953125 28.515625 34.328125 
L 26.609375 36.140625 
L 26.609375 -0.921875 
L 27.25 -13.8125 
Q 22.90625 -15.765625 20.515625 -16.40625 
L 21.234375 -2.34375 
L 21.234375 37.453125 
Q 16.75 27.984375 13.9375 22.953125 
Q 11.140625 17.921875 5.125 10.109375 
z
M 29.984375 -5.515625 
Q 36.578125 3.65625 39.671875 10.828125 
Q 42.78125 18.015625 44.390625 22.625 
Q 46 27.25 46.4375 29.5 
L 47.265625 33.453125 
L 55.421875 28.609375 
Q 57.328125 27.4375 57.203125 27.125 
Q 57.078125 26.8125 55.609375 26.3125 
L 52.984375 25.390625 
Q 46.53125 13.28125 42.578125 7.03125 
Q 38.625 0.78125 30.953125 -6.390625 
z
M 88.96875 50.53125 
L 96.234375 43.265625 
Q 96.875 42.578125 96.71875 42.25 
Q 96.578125 41.9375 95.90625 41.9375 
L 68.65625 41.9375 
L 68.65625 -5.21875 
Q 68.65625 -7.5625 67.96875 -9.265625 
Q 67.28125 -10.984375 65.515625 -12.953125 
Q 63.765625 -14.9375 61.671875 -15.046875 
L 57.125 -15.671875 
Q 57.03125 -14.109375 56.765625 -12.84375 
Q 56.5 -11.578125 55.21875 -10.0625 
Q 53.953125 -8.546875 46.96875 -6.0625 
L 47.359375 -4.390625 
Q 58.59375 -6.984375 60.0625 -6.78125 
Q 61.46875 -6.640625 62.109375 -5.921875 
Q 62.75 -5.21875 62.75 -3.078125 
L 62.75 41.9375 
L 49.5625 41.9375 
Q 44.921875 41.9375 43.21875 41.15625 
L 40.828125 40.1875 
L 36.421875 44.484375 
L 45.171875 44.234375 
L 83.25 44.234375 
z
M 82.515625 73.578125 
L 89.5 66.609375 
Q 90.140625 65.921875 90.03125 65.546875 
Q 89.9375 65.1875 89.5 65.1875 
L 55.03125 65.1875 
Q 53.171875 65.1875 51.875 64.890625 
Q 50.59375 64.59375 47.359375 63.421875 
L 43.109375 67.71875 
L 50.6875 67.484375 
L 77.046875 67.484375 
z
M 74.5625 31.734375 
Q 81 25.6875 83.640625 22.75 
Q 86.28125 19.828125 89.1875 16.09375 
Q 92.09375 12.359375 93.109375 10.453125 
Q 94.140625 8.546875 94.203125 6.34375 
Q 94.28125 4.15625 93.703125 2.640625 
Q 93.015625 0.875 91.578125 -0.296875 
Q 90.140625 -1.46875 89.359375 -1.375 
Q 88.28125 -1.265625 87.734375 -0.140625 
Q 87.203125 0.984375 86.859375 3.78125 
Q 86.53125 6.59375 85.671875 9.25 
Q 84.8125 11.921875 83.46875 14.84375 
Q 82.125 17.78125 80.5625 20.609375 
Q 79 23.4375 73.6875 30.8125 
z
" id="UNAVAILABLE-26631"/>
      </defs>
      <use xlink:href="#UNAVAILABLE-27178"/>
      <use x="100" xlink:href="#UNAVAILABLE-22352"/>
      <use x="200" xlink:href="#UNAVAILABLE-26631"/>
     </g>
    </g>
   </g>
   <g id="matplotlib.axis_2">
    <g id="ytick_1">
     <g id="line2d_7">
      <defs>
       <path d="M 0 0 
L -6 0 
" id="m5ae711da10" style="stroke:#262626;stroke-width:1.25;"/>
      </defs>
      <g>
       <use style="fill:#262626;stroke:#262626;stroke-width:1.25;" x="64.690547" xlink:href="#m5ae711da10" y="323.256582"/>
      </g>
     </g>
     <g id="text_8">
      <!-- -1.00 -->
      <g style="fill:#262626;" transform="translate(20.821562 328.985176)scale(0.165 -0.165)">
       <defs>
        <path d="M 4.046875 26.125 
L 29.296875 26.125 
L 29.296875 18.75 
L 4.046875 18.75 
z
" id="TimesNewRomanPSMT-45"/>
        <path d="M 12.5 9.46875 
Q 14.796875 9.46875 16.359375 7.875 
Q 17.921875 6.296875 17.921875 4.046875 
Q 17.921875 1.8125 16.328125 0.21875 
Q 14.75 -1.375 12.5 -1.375 
Q 10.25 -1.375 8.65625 0.21875 
Q 7.078125 1.8125 7.078125 4.046875 
Q 7.078125 6.34375 8.65625 7.90625 
Q 10.25 9.46875 12.5 9.46875 
z
" id="TimesNewRomanPSMT-46"/>
       </defs>
       <use xlink:href="#TimesNewRomanPSMT-45"/>
       <use x="33.300781" xlink:href="#TimesNewRomanPSMT-49"/>
       <use x="83.300781" xlink:href="#TimesNewRomanPSMT-46"/>
       <use x="108.300781" xlink:href="#TimesNewRomanPSMT-48"/>
       <use x="158.300781" xlink:href="#TimesNewRomanPSMT-48"/>
      </g>
     </g>
    </g>
    <g id="ytick_2">
     <g id="line2d_8">
      <g>
       <use style="fill:#262626;stroke:#262626;stroke-width:1.25;" x="64.690547" xlink:href="#m5ae711da10" y="285.455584"/>
      </g>
     </g>
     <g id="text_9">
      <!-- -0.75 -->
      <g style="fill:#262626;" transform="translate(20.821562 291.184178)scale(0.165 -0.165)">
       <defs>
        <path d="M 10.0625 66.21875 
L 45.5625 66.21875 
L 45.5625 64.359375 
L 23.484375 -1.375 
L 18.015625 -1.375 
L 37.796875 58.25 
L 19.578125 58.25 
Q 14.0625 58.25 11.71875 56.9375 
Q 7.625 54.6875 5.125 50 
L 3.71875 50.53125 
z
" id="TimesNewRomanPSMT-55"/>
        <path d="M 43.40625 66.21875 
L 39.59375 57.90625 
L 19.671875 57.90625 
L 15.328125 49.03125 
Q 28.265625 47.125 35.84375 39.40625 
Q 42.328125 32.765625 42.328125 23.78125 
Q 42.328125 18.5625 40.203125 14.109375 
Q 38.09375 9.671875 34.859375 6.546875 
Q 31.640625 3.421875 27.6875 1.515625 
Q 22.078125 -1.171875 16.15625 -1.171875 
Q 10.203125 -1.171875 7.484375 0.84375 
Q 4.78125 2.875 4.78125 5.328125 
Q 4.78125 6.6875 5.90625 7.734375 
Q 7.03125 8.796875 8.734375 8.796875 
Q 10.015625 8.796875 10.96875 8.40625 
Q 11.921875 8.015625 14.203125 6.390625 
Q 17.875 3.859375 21.625 3.859375 
Q 27.34375 3.859375 31.65625 8.171875 
Q 35.984375 12.5 35.984375 18.703125 
Q 35.984375 24.703125 32.125 29.90625 
Q 28.265625 35.109375 21.484375 37.9375 
Q 16.15625 40.140625 6.984375 40.484375 
L 19.671875 66.21875 
z
" id="TimesNewRomanPSMT-53"/>
       </defs>
       <use xlink:href="#TimesNewRomanPSMT-45"/>
       <use x="33.300781" xlink:href="#TimesNewRomanPSMT-48"/>
       <use x="83.300781" xlink:href="#TimesNewRomanPSMT-46"/>
       <use x="108.300781" xlink:href="#TimesNewRomanPSMT-55"/>
       <use x="158.300781" xlink:href="#TimesNewRomanPSMT-53"/>
      </g>
     </g>
    </g>
    <g id="ytick_3">
     <g id="line2d_9">
      <g>
       <use style="fill:#262626;stroke:#262626;stroke-width:1.25;" x="64.690547" xlink:href="#m5ae711da10" y="247.654585"/>
      </g>
     </g>
     <g id="text_10">
      <!-- -0.50 -->
      <g style="fill:#262626;" transform="translate(20.821562 253.383179)scale(0.165 -0.165)">
       <use xlink:href="#TimesNewRomanPSMT-45"/>
       <use x="33.300781" xlink:href="#TimesNewRomanPSMT-48"/>
       <use x="83.300781" xlink:href="#TimesNewRomanPSMT-46"/>
       <use x="108.300781" xlink:href="#TimesNewRomanPSMT-53"/>
       <use x="158.300781" xlink:href="#TimesNewRomanPSMT-48"/>
      </g>
     </g>
    </g>
    <g id="ytick_4">
     <g id="line2d_10">
      <g>
       <use style="fill:#262626;stroke:#262626;stroke-width:1.25;" x="64.690547" xlink:href="#m5ae711da10" y="209.853587"/>
      </g>
     </g>
     <g id="text_11">
      <!-- -0.25 -->
      <g style="fill:#262626;" transform="translate(20.821562 215.58218)scale(0.165 -0.165)">
       <use xlink:href="#TimesNewRomanPSMT-45"/>
       <use x="33.300781" xlink:href="#TimesNewRomanPSMT-48"/>
       <use x="83.300781" xlink:href="#TimesNewRomanPSMT-46"/>
       <use x="108.300781" xlink:href="#TimesNewRomanPSMT-50"/>
       <use x="158.300781" xlink:href="#TimesNewRomanPSMT-53"/>
      </g>
     </g>
    </g>
    <g id="ytick_5">
     <g id="line2d_11">
      <g>
       <use style="fill:#262626;stroke:#262626;stroke-width:1.25;" x="64.690547" xlink:href="#m5ae711da10" y="172.052588"/>
      </g>
     </g>
     <g id="text_12">
      <!-- 0.00 -->
      <g style="fill:#262626;" transform="translate(26.315547 177.781182)scale(0.165 -0.165)">
       <use xlink:href="#TimesNewRomanPSMT-48"/>
       <use x="50" xlink:href="#TimesNewRomanPSMT-46"/>
       <use x="75" xlink:href="#TimesNewRomanPSMT-48"/>
       <use x="125" xlink:href="#TimesNewRomanPSMT-48"/>
      </g>
     </g>
    </g>
    <g id="ytick_6">
     <g id="line2d_12">
      <g>
       <use style="fill:#262626;stroke:#262626;stroke-width:1.25;" x="64.690547" xlink:href="#m5ae711da10" y="134.25159"/>
      </g>
     </g>
     <g id="text_13">
      <!-- 0.25 -->
      <g style="fill:#262626;" transform="translate(26.315547 139.980183)scale(0.165 -0.165)">
       <use xlink:href="#TimesNewRomanPSMT-48"/>
       <use x="50" xlink:href="#TimesNewRomanPSMT-46"/>
       <use x="75" xlink:href="#TimesNewRomanPSMT-50"/>
       <use x="125" xlink:href="#TimesNewRomanPSMT-53"/>
      </g>
     </g>
    </g>
    <g id="ytick_7">
     <g id="line2d_13">
      <g>
       <use style="fill:#262626;stroke:#262626;stroke-width:1.25;" x="64.690547" xlink:href="#m5ae711da10" y="96.450591"/>
      </g>
     </g>
     <g id="text_14">
      <!-- 0.50 -->
      <g style="fill:#262626;" transform="translate(26.315547 102.179185)scale(0.165 -0.165)">
       <use xlink:href="#TimesNewRomanPSMT-48"/>
       <use x="50" xlink:href="#TimesNewRomanPSMT-46"/>
       <use x="75" xlink:href="#TimesNewRomanPSMT-53"/>
       <use x="125" xlink:href="#TimesNewRomanPSMT-48"/>
      </g>
     </g>
    </g>
    <g id="ytick_8">
     <g id="line2d_14">
      <g>
       <use style="fill:#262626;stroke:#262626;stroke-width:1.25;" x="64.690547" xlink:href="#m5ae711da10" y="58.649592"/>
      </g>
     </g>
     <g id="text_15">
      <!-- 0.75 -->
      <g style="fill:#262626;" transform="translate(26.315547 64.378186)scale(0.165 -0.165)">
       <use xlink:href="#TimesNewRomanPSMT-48"/>
       <use x="50" xlink:href="#TimesNewRomanPSMT-46"/>
       <use x="75" xlink:href="#TimesNewRomanPSMT-55"/>
       <use x="125" xlink:href="#TimesNewRomanPSMT-53"/>
      </g>
     </g>
    </g>
    <g id="ytick_9">
     <g id="line2d_15">
      <g>
       <use style="fill:#262626;stroke:#262626;stroke-width:1.25;" x="64.690547" xlink:href="#m5ae711da10" y="20.848594"/>
      </g>
     </g>
     <g id="text_16">
      <!-- 1.00 -->
      <g style="fill:#262626;" transform="translate(26.315547 26.577188)scale(0.165 -0.165)">
       <use xlink:href="#TimesNewRomanPSMT-49"/>
       <use x="50" xlink:href="#TimesNewRomanPSMT-46"/>
       <use x="75" xlink:href="#TimesNewRomanPSMT-48"/>
       <use x="125" xlink:href="#TimesNewRomanPSMT-48"/>
      </g>
     </g>
    </g>
    <g id="text_17">
     <!-- 纵坐标 -->
     <g style="fill:#262626;" transform="translate(13.727812 199.048594)rotate(-90)scale(0.18 -0.18)">
      <defs>
       <path d="M 21.140625 76.265625 
L 28.65625 71.390625 
Q 29.34375 70.90625 29.3125 70.703125 
Q 29.296875 70.515625 28.5625 70.21875 
L 26.171875 69.234375 
Q 18.5 56.390625 10.203125 43.171875 
L 25.875 44.921875 
Q 31.15625 54.640625 31.984375 57.8125 
L 32.671875 60.296875 
L 39.984375 55.71875 
Q 40.71875 55.21875 40.734375 54.953125 
Q 40.765625 54.6875 39.84375 54.34375 
L 37.640625 53.5625 
Q 24.90625 35.203125 24.515625 34.671875 
L 15.578125 23.578125 
L 14.40625 22.078125 
Q 26.171875 22.796875 38.625 24.5625 
L 38.671875 23.1875 
Q 18.5 18.3125 14.203125 16.453125 
L 10.6875 14.984375 
L 6.734375 21.4375 
Q 9.421875 22.078125 10.859375 23.125 
Q 12.3125 24.171875 14.3125 26.640625 
Q 16.3125 29.109375 18.3125 32.46875 
L 24.515625 42.625 
Q 22.171875 41.9375 21.046875 41.703125 
L 15.875 40.484375 
Q 12.015625 39.453125 7.03125 37.015625 
L 3.171875 42.234375 
Q 5.953125 44.140625 8 46.15625 
Q 10.0625 48.1875 14.25 57.828125 
Q 18.453125 67.484375 19.53125 71 
L 21.140625 76.265625 
z
M 4.9375 1.90625 
Q 25.390625 5.125 38.484375 8.25 
Q 39.265625 9.8125 39.765625 10.953125 
Q 40.28125 12.109375 41.0625 14.71875 
Q 41.84375 17.328125 42.375 19.75 
Q 42.921875 22.171875 43.546875 26.078125 
Q 44.1875 29.984375 44.625 33.78125 
Q 45.0625 37.59375 45.453125 44.75 
Q 45.84375 51.90625 45.84375 54.4375 
L 45.90625 64.890625 
L 45.359375 75.640625 
L 54.4375 71.390625 
Q 55.46875 70.84375 55.484375 70.625 
Q 55.515625 70.40625 54.34375 69.828125 
L 52.25 68.75 
Q 51.703125 59.328125 51.46875 54.6875 
L 50.734375 42.671875 
L 50.4375 37.3125 
Q 53.5625 34.71875 56.609375 32.5625 
Q 59.671875 30.421875 61.421875 28.59375 
Q 63.1875 26.765625 63.234375 24.78125 
Q 63.28125 22.796875 62.5 21.09375 
Q 61.96875 20.015625 61.078125 18.96875 
Q 60.203125 17.921875 59.328125 17.96875 
Q 58.296875 17.96875 57.921875 18.75 
Q 57.5625 19.53125 57.140625 21.921875 
Q 56.734375 24.3125 55.515625 27 
Q 54.296875 29.6875 53.515625 30.765625 
L 50.34375 35.015625 
Q 49.21875 26.5625 48.34375 22.484375 
Q 47.46875 18.40625 46.40625 15.359375 
Q 45.359375 12.3125 43.375 8.15625 
Q 41.40625 4 38.0625 -0.5625 
Q 34.71875 -5.125 30.546875 -8.78125 
Q 26.375 -12.453125 21.734375 -15.875 
L 20.75 -14.75 
Q 27.640625 -8.109375 30.6875 -4.25 
Q 33.734375 -0.390625 37.25 5.71875 
Q 28.375 2.875 20.4375 -0.078125 
Q 12.5 -3.03125 8.734375 -5.171875 
z
M 42.28125 -15.4375 
Q 47.015625 -10.546875 49.546875 -7.546875 
Q 52.09375 -4.546875 54.953125 -0.3125 
Q 57.8125 3.90625 59.296875 6.703125 
Q 60.796875 9.515625 62.359375 13.34375 
Q 63.921875 17.1875 64.8125 20.359375 
Q 65.71875 23.53125 66.796875 29.3125 
Q 67.875 35.109375 68.328125 39.15625 
Q 68.796875 43.21875 69.28125 49.6875 
Q 69.78125 56.15625 69.828125 58.296875 
L 70.015625 67.875 
L 69.828125 77 
L 78.21875 72.609375 
Q 79.78125 71.78125 79.734375 71.625 
L 78.5625 71.046875 
L 76.03125 69.484375 
Q 75.6875 64.40625 75.65625 61.296875 
Q 75.640625 58.203125 75.921875 53.484375 
Q 76.21875 48.78125 76.96875 41.8125 
Q 77.734375 34.859375 78.46875 30.21875 
Q 79.203125 25.59375 80.484375 20.671875 
Q 81.78125 15.765625 83.515625 10.875 
Q 85.25 6 87.859375 1.828125 
Q 90.484375 -2.34375 92.21875 -4.484375 
Q 93.953125 -6.640625 97.3125 -9.515625 
L 96.921875 -10.40625 
Q 93.75 -9.8125 91.890625 -10.171875 
Q 90.046875 -10.546875 87.546875 -12.640625 
Q 85.546875 -9.578125 84.125 -6.90625 
Q 82.71875 -4.25 80.4375 2.390625 
Q 78.171875 9.03125 77.078125 15.671875 
Q 75.984375 22.3125 75.734375 26.703125 
L 74.21875 47.015625 
Q 73.046875 36.8125 71.75 29.296875 
Q 70.453125 21.78125 67.59375 14.46875 
Q 64.75 7.171875 61.71875 3.046875 
Q 58.6875 -1.078125 54.171875 -6.21875 
Q 49.65625 -11.375 42.96875 -16.453125 
z
" id="UNAVAILABLE-32437"/>
      </defs>
      <use xlink:href="#UNAVAILABLE-32437"/>
      <use x="100" xlink:href="#UNAVAILABLE-22352"/>
      <use x="200" xlink:href="#UNAVAILABLE-26631"/>
     </g>
    </g>
   </g>
   <g id="line2d_16">
    <path clip-path="url(#pe95fe0e248)" d="M 80.831043 172.052588 
L 84.091749 156.805416 
L 87.352455 141.71368 
L 90.613161 126.931229 
L 93.873868 112.608762 
L 97.134574 98.892287 
L 100.39528 85.921636 
L 103.655986 73.829035 
L 106.916693 62.737761 
L 110.177399 52.760883 
L 113.438105 44.000108 
L 116.698811 36.544748 
L 119.959518 30.470804 
L 123.220224 25.840197 
L 126.48093 22.700133 
L 129.741636 21.082623 
L 133.002343 21.004157 
L 136.263049 22.465534 
L 139.523755 25.451856 
L 142.784461 29.93268 
L 146.045167 35.862327 
L 149.305874 43.180347 
L 152.56658 51.812139 
L 155.827286 61.669706 
L 159.087992 72.652557 
L 162.348699 84.648728 
L 165.609405 97.535927 
L 168.870111 111.182776 
L 172.130817 125.450154 
L 175.391524 140.192614 
L 178.65223 155.259867 
L 181.912936 170.498311 
L 185.173642 185.752599 
L 188.434349 200.867225 
L 191.695055 215.688104 
L 194.955761 230.064146 
L 198.216467 243.848797 
L 201.477173 256.901532 
L 204.73788 269.089284 
L 207.998586 280.287809 
L 211.259292 290.382944 
L 214.519998 299.271776 
L 217.780705 306.863689 
L 221.041411 313.081288 
L 224.302117 317.861188 
L 227.562823 321.154662 
L 230.82353 322.928134 
L 234.084236 323.163525 
L 237.344942 321.858436 
L 240.605648 319.026171 
L 243.866355 314.695603 
L 247.127061 308.910879 
L 250.387767 301.730972 
L 253.648473 293.229075 
L 256.909179 283.491861 
L 260.169886 272.618594 
L 263.430592 260.72012 
L 266.691298 247.917736 
L 269.952004 234.341955 
L 273.212711 220.131174 
L 276.473417 205.430261 
L 279.734123 190.389084 
L 282.994829 175.160979 
L 286.255536 159.901185 
L 289.516242 144.765267 
L 292.776948 129.907526 
L 296.037654 115.479428 
L 299.298361 101.628057 
L 302.559067 88.494619 
L 305.819773 76.213003 
L 309.080479 64.90841 
L 312.341185 54.696084 
L 315.601892 45.680134 
L 318.862598 37.952472 
L 322.123304 31.591875 
L 325.38401 26.663187 
L 328.644717 23.216651 
L 331.905423 21.287404 
L 335.166129 20.895113 
L 338.426835 22.043777 
L 341.687542 24.721686 
L 344.948248 28.90154 
L 348.208954 34.540729 
L 351.46966 41.581764 
L 354.730367 49.952867 
L 357.991073 59.5687 
L 361.251779 70.331234 
L 364.512485 82.130754 
L 367.773192 94.84697 
L 371.033898 108.350248 
L 374.294604 122.502932 
L 377.55531 137.160743 
L 380.816016 152.174254 
L 384.076723 167.390413 
L 387.337429 182.654099 
L 390.598135 197.80971 
L 393.858841 212.702743 
L 397.119548 227.181373 
L 400.380254 241.098 
L 403.64096 254.310753 
" style="fill:none;stroke:#4c72b0;stroke-linecap:round;stroke-width:1.5;"/>
   </g>
   <g id="line2d_17">
    <path clip-path="url(#pe95fe0e248)" d="M 80.831043 20.848594 
L 84.091749 21.619308 
L 87.352455 23.923595 
L 90.613161 27.737964 
L 93.873868 33.023528 
L 97.134574 39.726407 
L 100.39528 47.778267 
L 103.655986 57.097025 
L 106.916693 67.587683 
L 110.177399 79.143294 
L 113.438105 91.646057 
L 116.698811 104.968513 
L 119.959518 118.97485 
L 123.220224 133.52228 
L 126.48093 148.462503 
L 129.741636 163.643212 
L 133.002343 178.909649 
L 136.263049 194.106182 
L 139.523755 209.077893 
L 142.784461 223.672155 
L 146.045167 237.740187 
L 149.305874 251.138576 
L 152.56658 263.730733 
L 155.827286 275.38829 
L 159.087992 285.992404 
L 162.348699 295.434974 
L 165.609405 303.619739 
L 168.870111 310.463259 
L 172.130817 315.89577 
L 175.391524 319.861891 
L 178.65223 322.321189 
L 181.912936 323.248594 
L 185.173642 322.634651 
L 188.434349 320.485619 
L 191.695055 316.823406 
L 194.955761 311.685346 
L 198.216467 305.123818 
L 201.477173 297.205713 
L 204.73788 288.011751 
L 207.998586 277.635659 
L 211.259292 266.183214 
L 214.519998 253.771166 
L 217.780705 240.52605 
L 221.041411 226.582889 
L 224.302117 212.083827 
L 227.562823 197.176672 
L 230.82353 182.013392 
L 234.084236 166.748568 
L 237.344942 151.537816 
L 240.605648 136.536198 
L 243.866355 121.896648 
L 247.127061 107.768406 
L 250.387767 94.2955 
L 253.648473 81.615279 
L 256.909179 69.857009 
L 260.169886 59.140559 
L 263.430592 49.575175 
L 266.691298 41.258371 
L 269.952004 34.274932 
L 273.212711 28.696048 
L 276.473417 24.578594 
L 279.734123 21.964545 
L 282.994829 20.880548 
L 286.255536 21.337654 
L 289.516242 23.331204 
L 292.776948 26.840875 
L 296.037654 31.830887 
L 299.298361 38.250371 
L 302.559067 46.033884 
L 305.819773 55.102078 
L 309.080479 65.362509 
L 312.341185 76.710578 
L 315.601892 89.030598 
L 318.862598 102.196975 
L 322.123304 116.075486 
L 325.38401 130.524648 
L 328.644717 145.397161 
L 331.905423 160.541409 
L 335.166129 175.803007 
L 338.426835 191.026371 
L 341.687542 206.05631 
L 344.948248 220.739602 
L 348.208954 234.926561 
L 351.46966 248.472559 
L 354.730367 261.239504 
L 357.991073 273.097245 
L 361.251779 283.9249 
L 364.512485 293.612087 
L 367.773192 302.060051 
L 371.033898 309.182672 
L 374.294604 314.907338 
L 377.55531 319.17569 
L 380.816016 321.944215 
L 384.076723 323.184689 
L 387.337429 322.884468 
L 390.598135 321.04661 
L 393.858841 317.689853 
L 397.119548 312.848415 
L 400.380254 306.571654 
L 403.64096 298.923555 
" style="fill:none;stroke:#dd8452;stroke-linecap:round;stroke-width:1.5;"/>
   </g>
   <g id="patch_3">
    <path d="M 64.690547 338.368594 
L 64.690547 5.728594 
" style="fill:none;stroke:#262626;stroke-linecap:square;stroke-linejoin:miter;stroke-width:1.25;"/>
   </g>
   <g id="patch_4">
    <path d="M 419.781456 338.368594 
L 419.781456 5.728594 
" style="fill:none;stroke:#262626;stroke-linecap:square;stroke-linejoin:miter;stroke-width:1.25;"/>
   </g>
   <g id="patch_5">
    <path d="M 64.690547 338.368594 
L 419.781456 338.368594 
" style="fill:none;stroke:#262626;stroke-linecap:square;stroke-linejoin:miter;stroke-width:1.25;"/>
   </g>
   <g id="patch_6">
    <path d="M 64.690547 5.728594 
L 419.781456 5.728594 
" style="fill:none;stroke:#262626;stroke-linecap:square;stroke-linejoin:miter;stroke-width:1.25;"/>
   </g>
   <g id="legend_1">
    <g id="patch_7">
     <path d="M 77.290547 329.368594 
L 170.890547 329.368594 
Q 174.490547 329.368594 174.490547 325.768594 
L 174.490547 276.071719 
Q 174.490547 272.471719 170.890547 272.471719 
L 77.290547 272.471719 
Q 73.690547 272.471719 73.690547 276.071719 
L 73.690547 325.768594 
Q 73.690547 329.368594 77.290547 329.368594 
z
" style="fill:#ffffff;opacity:0.8;stroke:#cccccc;stroke-linejoin:miter;"/>
    </g>
    <g id="line2d_18">
     <path d="M 80.890547 286.942031 
L 116.890547 286.942031 
" style="fill:none;stroke:#4c72b0;stroke-linecap:round;stroke-width:1.5;"/>
    </g>
    <g id="line2d_19"/>
    <g id="text_18">
     <!-- 正弦 -->
     <g style="fill:#262626;" transform="translate(131.290547 293.242031)scale(0.18 -0.18)">
      <defs>
       <path d="M 4.046875 -4.15625 
L 12.203125 -4.5 
L 22.515625 -4.5 
L 22.515625 32.328125 
L 22.078125 45.453125 
L 30.515625 41.84375 
Q 32.328125 41.015625 32.34375 40.671875 
Q 32.375 40.328125 30.90625 39.5 
L 28.265625 37.9375 
L 28.265625 -4.5 
L 48.390625 -4.5 
L 48.390625 64.40625 
L 24.078125 64.40625 
Q 18.265625 64.40625 13.625 62.84375 
L 10.015625 67 
L 18.3125 66.703125 
L 76.8125 66.703125 
L 82.421875 72.796875 
L 89.15625 66.265625 
Q 90.1875 65.1875 90.0625 64.796875 
Q 89.9375 64.40625 89.15625 64.40625 
L 54.296875 64.40625 
L 54.296875 33.6875 
L 71.1875 33.6875 
L 76.515625 40.09375 
L 82.8125 33.84375 
Q 84.328125 32.28125 84.109375 31.828125 
Q 83.890625 31.390625 83.25 31.390625 
L 54.296875 31.390625 
L 54.296875 -4.5 
L 80.03125 -4.5 
L 85.59375 1.859375 
L 92.1875 -4.5 
Q 93.75 -6.0625 93.578125 -6.421875 
Q 93.40625 -6.78125 92.578125 -6.78125 
L 18.890625 -6.78125 
L 13.921875 -7.234375 
L 10.984375 -7.328125 
L 7.90625 -8.015625 
z
" id="UNAVAILABLE-27491"/>
       <path d="M 13.96875 50.984375 
L 19.578125 46.53125 
L 29.984375 46.53125 
L 29.984375 65.28125 
L 17.140625 65.28125 
Q 13.53125 65.28125 10.203125 63.71875 
L 6.296875 67.671875 
L 12.640625 67.671875 
L 28.8125 67.671875 
L 32.515625 72.609375 
L 38.625 67.671875 
Q 39.203125 67.140625 39.171875 66.875 
Q 39.15625 66.609375 38.140625 65.828125 
L 36.140625 64.3125 
L 36.140625 49.21875 
L 36.578125 41.890625 
Q 33.9375 40.046875 29.984375 38.484375 
L 29.984375 44.234375 
L 18.890625 44.234375 
L 14.9375 25.296875 
L 27.6875 25.296875 
L 30.859375 29.734375 
L 37.203125 24.515625 
Q 37.796875 24.03125 37.765625 23.78125 
Q 37.75 23.53125 36.671875 22.859375 
L 34.375 21.390625 
Q 33.84375 18.3125 32.78125 12.453125 
Q 31.734375 6.59375 31 1.703125 
Q 30.28125 -3.171875 28.859375 -5.859375 
Q 27.4375 -8.546875 26 -9.90625 
Q 24.5625 -11.28125 21.953125 -13.015625 
Q 19.34375 -14.75 18.5625 -14.890625 
L 16.9375 -15.28125 
Q 16.9375 -14.3125 16.796875 -12.59375 
Q 16.65625 -10.890625 14.375 -9.078125 
Q 12.109375 -7.28125 7.078125 -5.5625 
L 7.078125 -4 
Q 8.25 -4.25 12.765625 -5.21875 
Q 17.28125 -6.203125 18.96875 -6.09375 
Q 20.65625 -6 22.390625 -4.734375 
Q 24.125 -3.46875 25.3125 2.53125 
Q 26.515625 8.546875 27.25 13.921875 
L 28.46875 23.046875 
L 15.1875 23.046875 
L 12.015625 18.75 
L 6.296875 24.421875 
L 9.578125 26.953125 
L 13.1875 45.015625 
z
M 42.921875 56.109375 
L 39.3125 60.109375 
L 46 59.71875 
L 83.6875 59.71875 
L 89.109375 65.921875 
L 95.171875 59.515625 
Q 96.390625 58.15625 96.359375 57.78125 
Q 96.34375 57.421875 93.171875 57.421875 
L 61.8125 57.421875 
L 67.234375 54.109375 
Q 68.3125 53.421875 68.15625 52.90625 
Q 68.015625 52.390625 67.234375 52.203125 
L 64.40625 51.421875 
Q 62.9375 49.46875 62.25 48.53125 
L 56.109375 39.546875 
L 49.3125 30.28125 
L 47.859375 28.265625 
Q 58.015625 28.90625 69.28125 29.984375 
Q 71.34375 33.109375 73.953125 37.59375 
Q 76.5625 42.09375 77.296875 43.890625 
L 78.609375 47.015625 
L 85.9375 41.015625 
Q 86.8125 40.234375 86.78125 39.84375 
Q 86.765625 39.453125 85.296875 39.015625 
L 82.953125 38.28125 
Q 79.9375 34.8125 78.703125 33.328125 
Q 77.484375 31.84375 67.765625 19.703125 
Q 58.0625 7.5625 54.734375 4.4375 
L 47.515625 -2.59375 
Q 64.75 -2.25 82.234375 -1.65625 
Q 80.671875 2.203125 79.609375 4.046875 
Q 78.5625 5.90625 76.0625 9.265625 
Q 73.578125 12.640625 71.6875 14.546875 
L 72.75 15.328125 
Q 77.203125 12.109375 80.71875 9.15625 
Q 84.234375 6.203125 87.15625 2.4375 
Q 90.09375 -1.3125 90.921875 -3.40625 
Q 91.75 -5.515625 91.765625 -7.25 
Q 91.796875 -8.984375 91.109375 -10.453125 
Q 90.4375 -11.921875 89.015625 -13.1875 
Q 87.59375 -14.453125 86.421875 -14.359375 
Q 84.8125 -14.3125 84.59375 -12.921875 
Q 84.375 -11.53125 84.125 -9.078125 
Q 83.890625 -6.640625 83.5 -5.46875 
L 82.953125 -3.90625 
Q 60.40625 -6.109375 53.984375 -7.03125 
Q 47.5625 -7.953125 46.140625 -8.796875 
L 43.703125 -10.109375 
L 40.328125 -2.390625 
Q 43.65625 -1.65625 45.703125 -0.5625 
Q 47.75 0.53125 52.953125 7.265625 
Q 58.15625 14.015625 67.53125 27.59375 
Q 62.015625 26.421875 56.71875 25.21875 
Q 51.421875 24.03125 45.5625 21.625 
L 42.046875 27.59375 
Q 44.671875 29.109375 45.578125 29.765625 
Q 46.484375 30.421875 50 36.40625 
Q 53.515625 42.390625 54.890625 46.296875 
L 58.15625 55.03125 
L 58.84375 57.421875 
L 50.140625 57.421875 
Q 45.40625 57.421875 42.921875 56.109375 
z
M 56.984375 76.375 
L 57.953125 77.296875 
Q 59.03125 76.703125 60.640625 75.875 
Q 62.25 75.046875 65.90625 72.65625 
Q 69.578125 70.265625 69.671875 66.875 
Q 69.78125 63.484375 67.671875 61.453125 
Q 65.578125 59.421875 64.453125 60.375 
Q 63.328125 61.328125 62.890625 64.0625 
Q 62.453125 66.796875 61.9375 68.484375 
Q 61.421875 70.171875 60.5625 71.84375 
Q 59.71875 73.53125 56.984375 76.375 
z
" id="UNAVAILABLE-24358"/>
      </defs>
      <use xlink:href="#UNAVAILABLE-27491"/>
      <use x="100" xlink:href="#UNAVAILABLE-24358"/>
     </g>
    </g>
    <g id="line2d_20">
     <path d="M 80.890547 312.774844 
L 116.890547 312.774844 
" style="fill:none;stroke:#dd8452;stroke-linecap:round;stroke-width:1.5;"/>
    </g>
    <g id="line2d_21"/>
    <g id="text_19">
     <!-- 余弦 -->
     <g style="fill:#262626;" transform="translate(131.290547 319.074844)scale(0.18 -0.18)">
      <defs>
       <path d="M 31.109375 20.40625 
L 37.25 15.09375 
Q 38.578125 13.921875 38.40625 13.46875 
Q 38.234375 13.03125 37.109375 12.890625 
L 34.671875 12.5 
Q 26.21875 4.640625 21.09375 0.265625 
Q 15.96875 -4.109375 7.90625 -9.28125 
L 7.234375 -8.109375 
Q 19.046875 2.390625 24 9.046875 
Q 28.953125 15.71875 29.6875 17.390625 
L 31.109375 20.40625 
z
M 17.4375 21.578125 
L 13.875 25.6875 
L 23.140625 25.4375 
L 47.65625 25.4375 
L 47.65625 39.65625 
L 40.234375 39.65625 
Q 34.03125 39.65625 32.28125 38.96875 
L 30.171875 38.234375 
L 26.8125 42.234375 
L 34.765625 42 
L 60.546875 42 
L 64.5 46.09375 
L 69.734375 41.21875 
Q 70.515625 40.4375 70.40625 40.015625 
Q 70.3125 39.59375 69.734375 39.65625 
L 53.375 39.703125 
L 53.375 25.390625 
L 76.421875 25.4375 
L 80.515625 30.078125 
L 86.53125 24.75 
Q 87.59375 23.78125 87.421875 23.453125 
Q 87.25 23.140625 86.53125 23.140625 
L 53.375 23.140625 
L 53.375 -6.203125 
Q 53.375 -8.640625 52.484375 -10.5625 
Q 51.609375 -12.5 49.265625 -13.8125 
Q 46.921875 -15.140625 42.875 -16.21875 
Q 42.578125 -14.9375 41.9375 -12.84375 
Q 41.3125 -10.75 39.15625 -9.734375 
Q 37.015625 -8.734375 30.46875 -6.546875 
L 31 -4.890625 
Q 42.484375 -7.765625 45.703125 -7.171875 
Q 46.828125 -6.984375 47.234375 -6.484375 
Q 47.65625 -6 47.65625 -4.109375 
L 47.65625 23.140625 
L 27.4375 23.140625 
Q 21.4375 23.140625 17.4375 21.578125 
z
M 62.703125 15.140625 
L 63.765625 16.0625 
Q 74.421875 9.859375 78.71875 7.171875 
Q 83.015625 4.5 84.671875 2.734375 
Q 86.328125 0.984375 86.671875 -0.234375 
Q 87.015625 -1.46875 86.53125 -4.109375 
Q 86.1875 -5.859375 85.375 -6.6875 
Q 84.578125 -7.515625 83.5 -7.171875 
Q 82.8125 -7.03125 80.875 -3.484375 
Q 78.953125 0.046875 75.515625 3.953125 
Q 72.078125 7.859375 62.703125 15.140625 
z
M 3.609375 29.640625 
Q 13.71875 37.453125 21.3125 43.875 
Q 28.90625 50.296875 37.0625 60.6875 
Q 45.21875 71.09375 46.140625 73.734375 
L 47.265625 76.703125 
L 55.078125 72.21875 
Q 57.234375 70.953125 57.171875 70.53125 
Q 57.125 70.125 55.21875 69.78125 
L 52.984375 69.34375 
Q 54.984375 66.15625 59.84375 59.15625 
Q 64.703125 52.15625 75.390625 45.90625 
Q 86.078125 39.65625 94.96875 38.765625 
L 95.015625 37.3125 
Q 90.4375 36.859375 88.25 36.15625 
Q 86.078125 35.453125 85.6875 34.96875 
L 83.9375 33.15625 
Q 72.5625 41.21875 70.109375 43.171875 
Q 67.671875 45.125 63.109375 50.140625 
Q 58.546875 55.171875 57.078125 57.671875 
L 50.78125 67.53125 
Q 43.453125 58.890625 39.234375 54.78125 
Q 35.015625 50.6875 26.25 43.3125 
Q 17.484375 35.9375 4.5 28.375 
z
" id="UNAVAILABLE-20313"/>
      </defs>
      <use xlink:href="#UNAVAILABLE-20313"/>
      <use x="100" xlink:href="#UNAVAILABLE-24358"/>
     </g>
    </g>
   </g>
  </g>
  <g id="axes_2">
   <g id="patch_8">
    <path d="M 490.799638 338.368594 
L 845.890547 338.368594 
L 845.890547 5.728594 
L 490.799638 5.728594 
z
" style="fill:#ffffff;"/>
   </g>
   <g id="matplotlib.axis_3">
    <g id="xtick_7">
     <g id="line2d_22">
      <g>
       <use style="fill:#262626;stroke:#262626;stroke-width:1.25;" x="548.785864" xlink:href="#mabc89a16c5" y="338.368594"/>
      </g>
     </g>
     <g id="text_20">
      <!-- 标签1 -->
      <g style="fill:#262626;" transform="translate(511.285864 370.809219)scale(0.3 -0.3)">
       <defs>
        <path d="M 44.875 52.203125 
L 50.4375 49.21875 
Q 56.0625 58.453125 57.84375 62.84375 
Q 59.625 67.234375 60.515625 69.984375 
Q 61.421875 72.75 61.578125 73.875 
L 62.015625 76.8125 
L 69.625 73.4375 
Q 71.578125 72.515625 71.484375 72.015625 
Q 71.390625 71.53125 70.3125 71.234375 
L 67.625 70.453125 
Q 64.9375 66.359375 62.796875 62.75 
L 81.5 62.703125 
L 86.375 68.65625 
L 94.28125 61.71875 
Q 94.875 61.140625 94.75 60.796875 
Q 94.625 60.453125 93.703125 60.453125 
L 67.53125 60.453125 
Q 74.3125 53.421875 75.65625 51.421875 
Q 77 49.421875 76.921875 47.609375 
Q 76.859375 45.796875 74.828125 43.859375 
Q 72.796875 41.9375 71.890625 42.640625 
Q 71 43.359375 70.875 45.09375 
Q 70.75 46.828125 70.265625 49.0625 
Q 69.78125 51.3125 69.046875 53.125 
L 67.28125 56.59375 
L 65.328125 60.453125 
L 61.234375 60.453125 
Q 55.5625 52.390625 52.296875 48.390625 
L 53.46875 47.859375 
Q 54.296875 47.46875 54.3125 47.1875 
Q 54.34375 46.921875 53.125 46.4375 
L 50.921875 45.515625 
Q 53.859375 42.328125 58.15625 38.375 
Q 62.453125 34.421875 70.5 31.390625 
Q 78.5625 28.375 84.765625 26.90625 
Q 90.96875 25.4375 97.015625 25.140625 
L 97.125 23.96875 
Q 92.28125 23.140625 90.59375 22.265625 
Q 88.921875 21.390625 87.015625 18.265625 
Q 76.265625 22.90625 73.046875 24.5625 
Q 69.828125 26.21875 64.140625 30.046875 
Q 58.453125 33.890625 55.65625 36.734375 
Q 52.875 39.59375 48.921875 44.484375 
Q 43.265625 37.75 40.359375 34.890625 
Q 37.453125 32.03125 34.90625 30.078125 
Q 32.375 28.125 28.03125 25.171875 
Q 23.6875 22.21875 21.609375 21 
Q 19.53125 19.78125 13.546875 17.0625 
Q 7.5625 14.359375 3.328125 13.03125 
L 3.125 14.453125 
Q 13.96875 19.1875 21.65625 25.171875 
Q 29.34375 31.15625 32.703125 34.78125 
Q 36.078125 38.421875 39.5 42.890625 
Q 42.921875 47.359375 43.3125 48.390625 
L 44.875 52.203125 
z
M 3.765625 38.09375 
Q 8.546875 44 13.859375 53.515625 
Q 19.1875 63.03125 20.984375 68.140625 
Q 22.796875 73.25 23.921875 77.25 
L 31.890625 73.09375 
Q 33.0625 72.46875 33.109375 72.078125 
Q 33.15625 71.6875 32.46875 71.4375 
L 29.25 70.125 
L 24.609375 62.796875 
L 41.75 62.75 
L 47.21875 68.65625 
L 53.953125 62.109375 
Q 54.9375 61.140625 54.6875 60.796875 
Q 54.4375 60.453125 53.375 60.453125 
L 28.609375 60.453125 
Q 30.765625 57.859375 33.109375 54.640625 
Q 35.453125 51.421875 36.25 49.78125 
Q 37.0625 48.140625 37.0625 47.015625 
Q 37.015625 45.453125 36.25 44.53125 
Q 35.5 43.609375 34.28125 42.75 
Q 33.0625 41.890625 32.328125 42.046875 
Q 31.453125 42.140625 31.078125 42.71875 
Q 30.71875 43.3125 30.65625 43.890625 
Q 30.609375 44.484375 30.40625 47.3125 
Q 30.21875 50.140625 29.78125 52.234375 
Q 29.34375 54.34375 26.953125 60.453125 
L 23.390625 60.453125 
Q 16.703125 50.25 12.546875 45.53125 
Q 8.40625 40.828125 4.78125 37.15625 
z
M 8.15625 -8.6875 
L 15.375 -8.890625 
L 57.28125 -8.890625 
Q 57.90625 -7.5625 59.25 -4.828125 
Q 60.59375 -2.09375 61.25 -0.71875 
Q 61.921875 0.640625 64.546875 6.9375 
Q 67.1875 13.234375 67.78125 15.921875 
L 68.5625 19.28125 
L 76.171875 14.984375 
Q 77.390625 14.265625 77.34375 13.875 
Q 77.296875 13.484375 76.265625 13.140625 
L 73.734375 12.25 
Q 72.3125 10.40625 71.6875 9.46875 
L 67.4375 2.984375 
L 59.421875 -8.890625 
L 80.03125 -8.796875 
L 84.765625 -2.9375 
L 92.4375 -9.515625 
Q 93.359375 -10.359375 93.3125 -10.796875 
Q 93.265625 -11.234375 91.609375 -11.1875 
L 24.703125 -11.140625 
Q 16.359375 -11.140625 13.765625 -12.15625 
L 11.625 -12.9375 
z
M 23.921875 15.28125 
Q 34.03125 6.59375 35.609375 3.859375 
Q 37.203125 1.125 37.375 -0.828125 
Q 37.546875 -2.78125 35.78125 -4.75 
Q 34.03125 -6.734375 32.8125 -6.546875 
Q 32.28125 -6.5 31.765625 -6.125 
Q 31.25 -5.765625 31.046875 -3.8125 
Q 30.859375 -1.859375 29.90625 1.453125 
Q 28.953125 4.78125 27.578125 7.171875 
Q 26.21875 9.578125 22.953125 14.5 
z
M 28.859375 25 
L 35.453125 24.8125 
L 56 24.8125 
L 59.625 29.890625 
L 66.015625 24.21875 
Q 67.09375 23.25 66.9375 22.828125 
Q 66.796875 22.40625 65.1875 22.46875 
L 41.796875 22.515625 
Q 35.453125 22.515625 33.6875 21.734375 
L 32.03125 21.046875 
z
M 43.40625 19.625 
Q 48.6875 14.0625 49.25 13.375 
Q 49.8125 12.703125 52.125 9.625 
Q 54.4375 6.546875 54.859375 5.375 
Q 55.28125 4.203125 55.125 3.078125 
Q 54.9375 2.046875 54.078125 0.625 
Q 53.21875 -0.78125 51.609375 -2.3125 
Q 50 -3.859375 48.578125 -2.390625 
Q 48 -1.859375 48.171875 0.1875 
Q 48.34375 2.25 48.09375 4.390625 
Q 47.75 6.78125 46.921875 9.8125 
Q 46.09375 12.84375 44.96875 14.65625 
L 42.328125 19.09375 
z
" id="UNAVAILABLE-31614"/>
        <path d="M 11.921875 57.671875 
L 11.71875 59.125 
L 29.390625 67.234375 
L 29.390625 6.453125 
Q 29.390625 2.390625 29.703125 1.1875 
Q 30.03125 0 31 -0.65625 
Q 31.984375 -1.3125 33.59375 -1.375 
L 37.84375 -1.609375 
L 37.84375 -3.71875 
L 12.5 -3.71875 
L 12.5 -1.8125 
Q 13.96875 -1.703125 14.984375 -1.5625 
Q 16.015625 -1.421875 17.3125 -1.046875 
Q 18.609375 -0.6875 19.28125 -0.125 
Q 19.96875 0.4375 20.484375 1.53125 
Q 21 2.640625 21 6 
L 21 52.34375 
Q 21 54.59375 20.71875 56.03125 
Q 20.453125 57.46875 19.96875 58.046875 
Q 19.484375 58.640625 17.875 58.734375 
Q 16.5 58.796875 15.1875 58.453125 
L 11.921875 57.671875 
z
" id="UNAVAILABLE-49"/>
       </defs>
       <use xlink:href="#UNAVAILABLE-26631"/>
       <use x="100" xlink:href="#UNAVAILABLE-31614"/>
       <use x="200" xlink:href="#UNAVAILABLE-49"/>
      </g>
     </g>
    </g>
    <g id="xtick_8">
     <g id="line2d_23">
      <g>
       <use style="fill:#262626;stroke:#262626;stroke-width:1.25;" x="668.345092" xlink:href="#mabc89a16c5" y="338.368594"/>
      </g>
     </g>
     <g id="text_21">
      <!-- 标签2 -->
      <g style="fill:#262626;" transform="translate(630.845092 370.809219)scale(0.3 -0.3)">
       <defs>
        <path d="M 3.375 -3.71875 
L 3.375 -1.46875 
Q 9.765625 4.15625 12.9375 7.296875 
Q 16.109375 10.453125 20.671875 15.578125 
Q 25.25 20.703125 27.46875 23.65625 
Q 29.6875 26.609375 31.09375 28.921875 
Q 32.515625 31.25 33.390625 33.609375 
Q 34.28125 35.984375 34.671875 38.40625 
Q 35.0625 40.828125 35.0625 43.359375 
Q 35.015625 46.140625 34.28125 49.21875 
Q 33.546875 52.296875 31.9375 54.34375 
Q 30.328125 56.390625 27.078125 58.09375 
Q 23.828125 59.8125 20.3125 59.859375 
Q 18.015625 59.859375 16.140625 59.15625 
Q 14.265625 58.453125 12.25 56.8125 
Q 10.25 55.171875 9.46875 53.609375 
L 6.890625 49.03125 
L 5.328125 49.03125 
Q 5.90625 52.546875 6.53125 54.5 
Q 7.171875 56.453125 8.53125 58.8125 
Q 9.90625 61.1875 12.125 63.03125 
Q 14.359375 64.890625 17.09375 65.90625 
Q 19.828125 66.9375 23 67.09375 
Q 25.203125 67.140625 28.125 66.640625 
Q 31.0625 66.15625 33.46875 64.953125 
Q 35.890625 63.765625 37.71875 61.828125 
Q 39.546875 59.90625 40.8125 57.421875 
Q 42.09375 54.9375 42.578125 52.296875 
Q 43.0625 49.65625 42.875 45.65625 
Q 42.671875 43.0625 42.296875 41.578125 
Q 41.9375 40.09375 40.890625 37.671875 
Q 39.84375 35.25 38.96875 33.640625 
Q 38.09375 32.03125 36.578125 29.8125 
Q 35.0625 27.59375 31.375 23.078125 
Q 27.6875 18.5625 21.734375 12.84375 
L 12.15625 3.5625 
Q 24.609375 3.609375 28.75 3.5625 
Q 32.90625 3.515625 34.15625 3.53125 
Q 35.40625 3.5625 37.328125 3.828125 
Q 39.265625 4.109375 41.265625 4.953125 
Q 43.265625 5.8125 43.609375 6.5 
L 45.453125 9.328125 
L 47.265625 9.328125 
Q 46.1875 6.734375 45.453125 4.796875 
Q 44.734375 2.875 44.09375 0.921875 
L 42.578125 -3.71875 
z
" id="UNAVAILABLE-50"/>
       </defs>
       <use xlink:href="#UNAVAILABLE-26631"/>
       <use x="100" xlink:href="#UNAVAILABLE-31614"/>
       <use x="200" xlink:href="#UNAVAILABLE-50"/>
      </g>
     </g>
    </g>
    <g id="xtick_9">
     <g id="line2d_24">
      <g>
       <use style="fill:#262626;stroke:#262626;stroke-width:1.25;" x="787.904321" xlink:href="#mabc89a16c5" y="338.368594"/>
      </g>
     </g>
     <g id="text_22">
      <!-- 标签3 -->
      <g style="fill:#262626;" transform="translate(750.404321 370.809219)scale(0.3 -0.3)">
       <defs>
        <path d="M 16.5 32.125 
L 16.5 33.9375 
Q 19.78125 34.515625 21.796875 35.125 
Q 23.828125 35.75 25.53125 36.84375 
Q 27.25 37.9375 28.859375 39.671875 
Q 30.46875 41.40625 31.515625 43.796875 
Q 32.5625 46.1875 32.59375 49.234375 
Q 32.625 52.296875 31.453125 54.78125 
Q 30.609375 56.453125 29.171875 57.78125 
Q 27.734375 59.125 25.484375 59.875 
Q 23.25 60.640625 20.40625 60.640625 
Q 17.578125 60.59375 15.40625 59.78125 
Q 13.234375 58.984375 11.96875 57.515625 
L 9.859375 55.125 
L 8.59375 53.46875 
Q 7.71875 52.6875 7.15625 52.921875 
Q 6.59375 53.171875 6.46875 53.90625 
Q 6.34375 54.640625 7.5625 56.203125 
L 9.859375 59.71875 
Q 11.1875 61.671875 12.9375 63.03125 
Q 14.703125 64.40625 17.140625 65.453125 
Q 19.578125 66.5 22.46875 66.84375 
Q 25.25 67.140625 27.828125 66.75 
Q 30.421875 66.359375 32.375 65.578125 
Q 34.328125 64.796875 35.765625 63.5 
Q 37.203125 62.203125 38.375 60.328125 
Q 39.546875 58.453125 39.984375 56.828125 
Q 40.4375 55.21875 40.28125 52.984375 
Q 40.09375 50.4375 39.359375 48.40625 
Q 38.625 46.390625 37.15625 44.359375 
Q 35.6875 42.328125 33.890625 40.671875 
L 31.203125 38.1875 
Q 34.71875 36.1875 36.640625 34.8125 
Q 38.578125 33.453125 40.015625 31.71875 
Q 41.453125 29.984375 42.53125 27.34375 
Q 43.609375 24.703125 43.703125 21.359375 
Q 43.796875 18.015625 43.109375 14.890625 
Q 42.484375 12.203125 41.3125 9.46875 
Q 40.140625 6.734375 38.53125 4.65625 
Q 36.921875 2.59375 34.5 0.953125 
Q 32.078125 -0.6875 29.078125 -1.78125 
Q 26.078125 -2.875 23.359375 -3.171875 
Q 20.65625 -3.46875 16.609375 -3.21875 
Q 14.359375 -3.125 12.296875 -2.953125 
Q 10.25 -2.78125 8.703125 -2.171875 
Q 7.171875 -1.5625 6.4375 -0.53125 
Q 5.71875 0.484375 5.640625 1.5625 
Q 5.5625 2.640625 5.8125 3.21875 
Q 6.109375 3.859375 7.34375 4.515625 
Q 8.59375 5.171875 9.46875 5.21875 
Q 10.546875 5.28125 12.984375 4 
Q 15.4375 2.734375 16.875 2.21875 
Q 18.3125 1.703125 20.171875 1.515625 
Q 22.515625 1.21875 25.265625 1.65625 
Q 28.03125 2.09375 30.125 3.40625 
Q 32.234375 4.734375 33.734375 7.09375 
Q 35.25 9.46875 35.953125 11.828125 
Q 36.671875 14.203125 36.578125 16.84375 
Q 36.46875 19.046875 35.71875 21.3125 
Q 34.96875 23.578125 33.640625 25.484375 
Q 32.328125 27.390625 29.734375 29.25 
Q 27.15625 31.109375 25.140625 31.203125 
L 16.5 32.125 
z
" id="UNAVAILABLE-51"/>
       </defs>
       <use xlink:href="#UNAVAILABLE-26631"/>
       <use x="100" xlink:href="#UNAVAILABLE-31614"/>
       <use x="200" xlink:href="#UNAVAILABLE-51"/>
      </g>
     </g>
    </g>
    <g id="text_23">
     <!-- 横坐标2 -->
     <g style="fill:#262626;" transform="translate(636.845092 393.701719)scale(0.18 -0.18)">
      <use xlink:href="#UNAVAILABLE-27178"/>
      <use x="100" xlink:href="#UNAVAILABLE-22352"/>
      <use x="200" xlink:href="#UNAVAILABLE-26631"/>
      <use x="300" xlink:href="#UNAVAILABLE-50"/>
     </g>
    </g>
   </g>
   <g id="matplotlib.axis_4">
    <g id="ytick_10">
     <g id="line2d_25">
      <g>
       <use style="fill:#262626;stroke:#262626;stroke-width:1.25;" x="490.799638" xlink:href="#m5ae711da10" y="338.368594"/>
      </g>
     </g>
     <g id="text_24">
      <!-- 0 -->
      <g style="fill:#262626;" transform="translate(473.049638 344.097188)scale(0.165 -0.165)">
       <use xlink:href="#TimesNewRomanPSMT-48"/>
      </g>
     </g>
    </g>
    <g id="ytick_11">
     <g id="line2d_26">
      <g>
       <use style="fill:#262626;stroke:#262626;stroke-width:1.25;" x="490.799638" xlink:href="#m5ae711da10" y="271.840594"/>
      </g>
     </g>
     <g id="text_25">
      <!-- 20 -->
      <g style="fill:#262626;" transform="translate(464.799638 277.569187)scale(0.165 -0.165)">
       <use xlink:href="#TimesNewRomanPSMT-50"/>
       <use x="50" xlink:href="#TimesNewRomanPSMT-48"/>
      </g>
     </g>
    </g>
    <g id="ytick_12">
     <g id="line2d_27">
      <g>
       <use style="fill:#262626;stroke:#262626;stroke-width:1.25;" x="490.799638" xlink:href="#m5ae711da10" y="205.312594"/>
      </g>
     </g>
     <g id="text_26">
      <!-- 40 -->
      <g style="fill:#262626;" transform="translate(464.799638 211.041187)scale(0.165 -0.165)">
       <use xlink:href="#TimesNewRomanPSMT-52"/>
       <use x="50" xlink:href="#TimesNewRomanPSMT-48"/>
      </g>
     </g>
    </g>
    <g id="ytick_13">
     <g id="line2d_28">
      <g>
       <use style="fill:#262626;stroke:#262626;stroke-width:1.25;" x="490.799638" xlink:href="#m5ae711da10" y="138.784594"/>
      </g>
     </g>
     <g id="text_27">
      <!-- 60 -->
      <g style="fill:#262626;" transform="translate(464.799638 144.513187)scale(0.165 -0.165)">
       <use xlink:href="#TimesNewRomanPSMT-54"/>
       <use x="50" xlink:href="#TimesNewRomanPSMT-48"/>
      </g>
     </g>
    </g>
    <g id="ytick_14">
     <g id="line2d_29">
      <g>
       <use style="fill:#262626;stroke:#262626;stroke-width:1.25;" x="490.799638" xlink:href="#m5ae711da10" y="72.256594"/>
      </g>
     </g>
     <g id="text_28">
      <!-- 80 -->
      <g style="fill:#262626;" transform="translate(464.799638 77.985187)scale(0.165 -0.165)">
       <use xlink:href="#TimesNewRomanPSMT-56"/>
       <use x="50" xlink:href="#TimesNewRomanPSMT-48"/>
      </g>
     </g>
    </g>
    <g id="ytick_15">
     <g id="line2d_30">
      <g>
       <use style="fill:#262626;stroke:#262626;stroke-width:1.25;" x="490.799638" xlink:href="#m5ae711da10" y="5.728594"/>
      </g>
     </g>
     <g id="text_29">
      <!-- 100 -->
      <g style="fill:#262626;" transform="translate(456.549638 11.457187)scale(0.165 -0.165)">
       <use xlink:href="#TimesNewRomanPSMT-49"/>
       <use x="50" xlink:href="#TimesNewRomanPSMT-48"/>
       <use x="100" xlink:href="#TimesNewRomanPSMT-48"/>
      </g>
     </g>
    </g>
    <g id="text_30">
     <!-- 纵坐标2 -->
     <g style="fill:#262626;" transform="translate(449.455888 203.548594)rotate(-90)scale(0.18 -0.18)">
      <use xlink:href="#UNAVAILABLE-32437"/>
      <use x="100" xlink:href="#UNAVAILABLE-22352"/>
      <use x="200" xlink:href="#UNAVAILABLE-26631"/>
      <use x="300" xlink:href="#UNAVAILABLE-50"/>
     </g>
    </g>
   </g>
   <g id="patch_9">
    <path clip-path="url(#p48a2255735)" d="M 506.940134 338.368594 
L 548.785864 338.368594 
L 548.785864 95.940562 
L 506.940134 95.940562 
z
" style="fill:#f5deb3;stroke:#ffffff;stroke-linejoin:miter;"/>
   </g>
   <g id="patch_10">
    <path clip-path="url(#p48a2255735)" d="M 626.499362 338.368594 
L 668.345092 338.368594 
L 668.345092 94.410418 
L 626.499362 94.410418 
z
" style="fill:#f5deb3;stroke:#ffffff;stroke-linejoin:miter;"/>
   </g>
   <g id="patch_11">
    <path clip-path="url(#p48a2255735)" d="M 746.058591 338.368594 
L 787.904321 338.368594 
L 787.904321 91.51645 
L 746.058591 91.51645 
z
" style="fill:#f5deb3;stroke:#ffffff;stroke-linejoin:miter;"/>
   </g>
   <g id="patch_12">
    <path clip-path="url(#p48a2255735)" d="M 548.785864 338.368594 
L 590.631594 338.368594 
L 590.631594 158.576674 
L 548.785864 158.576674 
z
" style="fill:url(#hfa024a9b8c);stroke:#ffffff;stroke-linejoin:miter;"/>
   </g>
   <g id="patch_13">
    <path clip-path="url(#p48a2255735)" d="M 668.345092 338.368594 
L 710.190822 338.368594 
L 710.190822 158.576674 
L 668.345092 158.576674 
z
" style="fill:url(#hfa024a9b8c);stroke:#ffffff;stroke-linejoin:miter;"/>
   </g>
   <g id="patch_14">
    <path clip-path="url(#p48a2255735)" d="M 787.904321 338.368594 
L 829.750051 338.368594 
L 829.750051 158.04445 
L 787.904321 158.04445 
z
" style="fill:url(#hfa024a9b8c);stroke:#ffffff;stroke-linejoin:miter;"/>
   </g>
   <g id="patch_15">
    <path d="M 490.799638 338.368594 
L 490.799638 5.728594 
" style="fill:none;stroke:#262626;stroke-linecap:square;stroke-linejoin:miter;stroke-width:1.25;"/>
   </g>
   <g id="patch_16">
    <path d="M 845.890547 338.368594 
L 845.890547 5.728594 
" style="fill:none;stroke:#262626;stroke-linecap:square;stroke-linejoin:miter;stroke-width:1.25;"/>
   </g>
   <g id="patch_17">
    <path d="M 490.799638 338.368594 
L 845.890547 338.368594 
" style="fill:none;stroke:#262626;stroke-linecap:square;stroke-linejoin:miter;stroke-width:1.25;"/>
   </g>
   <g id="patch_18">
    <path d="M 490.799638 5.728594 
L 845.890547 5.728594 
" style="fill:none;stroke:#262626;stroke-linecap:square;stroke-linejoin:miter;stroke-width:1.25;"/>
   </g>
   <g id="text_31">
    <g id="patch_19">
     <path d="M 507.612999 99.262293 
L 548.112999 99.262293 
Q 549.912999 99.262293 549.912999 97.462293 
L 549.912999 81.11323 
Q 549.912999 79.31323 548.112999 79.31323 
L 507.612999 79.31323 
Q 505.812999 79.31323 505.812999 81.11323 
L 505.812999 97.462293 
Q 505.812999 99.262293 507.612999 99.262293 
z
" style="fill:#ffffff;opacity:0.5;stroke:#808080;stroke-linejoin:miter;"/>
    </g>
    <!-- 72.88 -->
    <g style="fill:#262626;" transform="translate(507.612999 93.611981)scale(0.18 -0.18)">
     <use xlink:href="#TimesNewRomanPSMT-55"/>
     <use x="50" xlink:href="#TimesNewRomanPSMT-50"/>
     <use x="100" xlink:href="#TimesNewRomanPSMT-46"/>
     <use x="125" xlink:href="#TimesNewRomanPSMT-56"/>
     <use x="175" xlink:href="#TimesNewRomanPSMT-56"/>
    </g>
   </g>
   <g id="text_32">
    <g id="patch_20">
     <path d="M 627.172227 97.732149 
L 667.672227 97.732149 
Q 669.472227 97.732149 669.472227 95.932149 
L 669.472227 79.583086 
Q 669.472227 77.783086 667.672227 77.783086 
L 627.172227 77.783086 
Q 625.372227 77.783086 625.372227 79.583086 
L 625.372227 95.932149 
Q 625.372227 97.732149 627.172227 97.732149 
z
" style="fill:#ffffff;opacity:0.5;stroke:#808080;stroke-linejoin:miter;"/>
    </g>
    <!-- 73.34 -->
    <g style="fill:#262626;" transform="translate(627.172227 92.081836)scale(0.18 -0.18)">
     <defs>
      <path d="M 5.078125 53.609375 
Q 7.90625 60.296875 12.21875 63.9375 
Q 16.546875 67.578125 23 67.578125 
Q 30.953125 67.578125 35.203125 62.40625 
Q 38.421875 58.546875 38.421875 54.15625 
Q 38.421875 46.921875 29.34375 39.203125 
Q 35.453125 36.8125 38.578125 32.375 
Q 41.703125 27.9375 41.703125 21.921875 
Q 41.703125 13.328125 36.234375 7.03125 
Q 29.109375 -1.171875 15.578125 -1.171875 
Q 8.890625 -1.171875 6.46875 0.484375 
Q 4.046875 2.15625 4.046875 4.046875 
Q 4.046875 5.46875 5.1875 6.546875 
Q 6.34375 7.625 7.953125 7.625 
Q 9.1875 7.625 10.453125 7.234375 
Q 11.28125 6.984375 14.203125 5.4375 
Q 17.140625 3.90625 18.265625 3.609375 
Q 20.0625 3.078125 22.125 3.078125 
Q 27.09375 3.078125 30.78125 6.9375 
Q 34.46875 10.796875 34.46875 16.0625 
Q 34.46875 19.921875 32.765625 23.578125 
Q 31.5 26.3125 29.984375 27.734375 
Q 27.875 29.6875 24.21875 31.265625 
Q 20.5625 32.859375 16.75 32.859375 
L 15.1875 32.859375 
L 15.1875 34.328125 
Q 19.046875 34.8125 22.921875 37.109375 
Q 26.8125 39.40625 28.5625 42.625 
Q 30.328125 45.84375 30.328125 49.703125 
Q 30.328125 54.734375 27.171875 57.828125 
Q 24.03125 60.9375 19.34375 60.9375 
Q 11.765625 60.9375 6.6875 52.828125 
z
" id="TimesNewRomanPSMT-51"/>
     </defs>
     <use xlink:href="#TimesNewRomanPSMT-55"/>
     <use x="50" xlink:href="#TimesNewRomanPSMT-51"/>
     <use x="100" xlink:href="#TimesNewRomanPSMT-46"/>
     <use x="125" xlink:href="#TimesNewRomanPSMT-51"/>
     <use x="175" xlink:href="#TimesNewRomanPSMT-52"/>
    </g>
   </g>
   <g id="text_33">
    <g id="patch_21">
     <path d="M 746.731456 94.838181 
L 787.231456 94.838181 
Q 789.031456 94.838181 789.031456 93.038181 
L 789.031456 76.689118 
Q 789.031456 74.889118 787.231456 74.889118 
L 746.731456 74.889118 
Q 744.931456 74.889118 744.931456 76.689118 
L 744.931456 93.038181 
Q 744.931456 94.838181 746.731456 94.838181 
z
" style="fill:#ffffff;opacity:0.5;stroke:#808080;stroke-linejoin:miter;"/>
    </g>
    <!-- 74.21 -->
    <g style="fill:#262626;" transform="translate(746.731456 89.187868)scale(0.18 -0.18)">
     <use xlink:href="#TimesNewRomanPSMT-55"/>
     <use x="50" xlink:href="#TimesNewRomanPSMT-52"/>
     <use x="100" xlink:href="#TimesNewRomanPSMT-46"/>
     <use x="125" xlink:href="#TimesNewRomanPSMT-50"/>
     <use x="175" xlink:href="#TimesNewRomanPSMT-49"/>
    </g>
   </g>
   <g id="text_34">
    <g id="patch_22">
     <path d="M 548.108729 161.448405 
Q 548.558729 161.898405 548.999354 161.448405 
Q 549.439979 160.998405 549.880604 161.448405 
Q 550.321229 161.898405 550.761854 161.448405 
Q 551.202479 160.998405 551.643104 161.448405 
Q 552.083729 161.898405 552.524354 161.448405 
Q 552.964979 160.998405 553.405604 161.448405 
Q 553.846229 161.898405 554.286854 161.448405 
Q 554.727479 160.998405 555.168104 161.448405 
Q 555.608729 161.898405 556.049354 161.448405 
Q 556.489979 160.998405 556.930604 161.448405 
Q 557.371229 161.898405 557.811854 161.448405 
Q 558.252479 160.998405 558.693104 161.448405 
Q 559.133729 161.898405 559.574354 161.448405 
Q 560.014979 160.998405 560.455604 161.448405 
Q 560.896229 161.898405 561.336854 161.448405 
Q 561.777479 160.998405 562.218104 161.448405 
Q 562.658729 161.898405 563.099354 161.448405 
Q 563.539979 160.998405 563.980604 161.448405 
Q 564.421229 161.898405 564.861854 161.448405 
Q 565.302479 160.998405 565.743104 161.448405 
Q 566.183729 161.898405 566.624354 161.448405 
Q 567.064979 160.998405 567.505604 161.448405 
Q 567.946229 161.898405 568.386854 161.448405 
Q 568.827479 160.998405 569.268104 161.448405 
Q 569.708729 161.898405 570.149354 161.448405 
Q 570.589979 160.998405 571.030604 161.448405 
Q 571.471229 161.898405 571.911854 161.448405 
Q 572.352479 160.998405 572.793104 161.448405 
Q 573.233729 161.898405 573.674354 161.448405 
Q 574.114979 160.998405 574.555604 161.448405 
Q 574.996229 161.898405 575.436854 161.448405 
Q 575.877479 160.998405 576.318104 161.448405 
Q 576.758729 161.898405 577.199354 161.448405 
Q 577.639979 160.998405 578.080604 161.448405 
Q 578.521229 161.898405 578.961854 161.448405 
Q 579.402479 160.998405 579.843104 161.448405 
Q 580.283729 161.898405 580.724354 161.448405 
Q 581.164979 160.998405 581.605604 161.448405 
Q 582.046229 161.898405 582.486854 161.448405 
Q 582.927479 160.998405 583.368104 161.448405 
Q 583.808729 161.898405 584.249354 161.448405 
Q 584.689979 160.998405 585.130604 161.448405 
Q 585.571229 161.898405 586.011854 161.448405 
Q 586.452479 160.998405 586.893104 161.448405 
Q 587.333729 161.898405 587.774354 161.448405 
Q 588.214979 160.998405 588.655604 161.448405 
Q 589.096229 161.898405 589.536854 161.448405 
Q 589.977479 160.998405 590.418104 161.448405 
Q 590.858729 161.898405 591.308729 161.448405 
Q 591.758729 160.998405 591.308729 160.544678 
Q 590.858729 160.090952 591.308729 159.637225 
Q 591.758729 159.183499 591.308729 158.729772 
Q 590.858729 158.276046 591.308729 157.822319 
Q 591.758729 157.368592 591.308729 156.914866 
Q 590.858729 156.461139 591.308729 156.007413 
Q 591.758729 155.553686 591.308729 155.09996 
Q 590.858729 154.646233 591.308729 154.192507 
Q 591.758729 153.73878 591.308729 153.285053 
Q 590.858729 152.831327 591.308729 152.3776 
Q 591.758729 151.923874 591.308729 151.470147 
Q 590.858729 151.016421 591.308729 150.562694 
Q 591.758729 150.108967 591.308729 149.655241 
Q 590.858729 149.201514 591.308729 148.747788 
Q 591.758729 148.294061 591.308729 147.840335 
Q 590.858729 147.386608 591.308729 146.932882 
Q 591.758729 146.479155 591.308729 146.025428 
Q 590.858729 145.571702 591.308729 145.117975 
Q 591.758729 144.664249 591.308729 144.210522 
Q 590.858729 143.756796 591.308729 143.303069 
Q 591.758729 142.849342 591.308729 142.399342 
Q 590.858729 141.949343 590.418104 142.399342 
Q 589.977479 142.849342 589.536854 142.399342 
Q 589.096229 141.949343 588.655604 142.399342 
Q 588.214979 142.849342 587.774354 142.399342 
Q 587.333729 141.949343 586.893104 142.399342 
Q 586.452479 142.849342 586.011854 142.399342 
Q 585.571229 141.949343 585.130604 142.399342 
Q 584.689979 142.849342 584.249354 142.399342 
Q 583.808729 141.949343 583.368104 142.399342 
Q 582.927479 142.849342 582.486854 142.399342 
Q 582.046229 141.949343 581.605604 142.399342 
Q 581.164979 142.849342 580.724354 142.399342 
Q 580.283729 141.949343 579.843104 142.399342 
Q 579.402479 142.849342 578.961854 142.399342 
Q 578.521229 141.949343 578.080604 142.399342 
Q 577.639979 142.849342 577.199354 142.399342 
Q 576.758729 141.949343 576.318104 142.399342 
Q 575.877479 142.849342 575.436854 142.399342 
Q 574.996229 141.949343 574.555604 142.399342 
Q 574.114979 142.849342 573.674354 142.399342 
Q 573.233729 141.949343 572.793104 142.399342 
Q 572.352479 142.849342 571.911854 142.399342 
Q 571.471229 141.949343 571.030604 142.399342 
Q 570.589979 142.849342 570.149354 142.399342 
Q 569.708729 141.949343 569.268104 142.399342 
Q 568.827479 142.849342 568.386854 142.399342 
Q 567.946229 141.949343 567.505604 142.399342 
Q 567.064979 142.849342 566.624354 142.399342 
Q 566.183729 141.949343 565.743104 142.399342 
Q 565.302479 142.849342 564.861854 142.399342 
Q 564.421229 141.949343 563.980604 142.399342 
Q 563.539979 142.849342 563.099354 142.399342 
Q 562.658729 141.949343 562.218104 142.399342 
Q 561.777479 142.849342 561.336854 142.399342 
Q 560.896229 141.949343 560.455604 142.399342 
Q 560.014979 142.849342 559.574354 142.399342 
Q 559.133729 141.949343 558.693104 142.399342 
Q 558.252479 142.849342 557.811854 142.399342 
Q 557.371229 141.949343 556.930604 142.399342 
Q 556.489979 142.849342 556.049354 142.399342 
Q 555.608729 141.949343 555.168104 142.399342 
Q 554.727479 142.849342 554.286854 142.399342 
Q 553.846229 141.949343 553.405604 142.399342 
Q 552.964979 142.849342 552.524354 142.399342 
Q 552.083729 141.949343 551.643104 142.399342 
Q 551.202479 142.849342 550.761854 142.399342 
Q 550.321229 141.949343 549.880604 142.399342 
Q 549.439979 142.849342 548.999354 142.399342 
Q 548.558729 141.949343 548.108729 142.399342 
Q 547.658729 142.849342 548.108729 143.303069 
Q 548.558729 143.756796 548.108729 144.210522 
Q 547.658729 144.664249 548.108729 145.117975 
Q 548.558729 145.571702 548.108729 146.025428 
Q 547.658729 146.479155 548.108729 146.932882 
Q 548.558729 147.386608 548.108729 147.840335 
Q 547.658729 148.294061 548.108729 148.747788 
Q 548.558729 149.201514 548.108729 149.655241 
Q 547.658729 150.108967 548.108729 150.562694 
Q 548.558729 151.016421 548.108729 151.470147 
Q 547.658729 151.923874 548.108729 152.3776 
Q 548.558729 152.831327 548.108729 153.285053 
Q 547.658729 153.73878 548.108729 154.192507 
Q 548.558729 154.646233 548.108729 155.09996 
Q 547.658729 155.553686 548.108729 156.007413 
Q 548.558729 156.461139 548.108729 156.914866 
Q 547.658729 157.368592 548.108729 157.822319 
Q 548.558729 158.276046 548.108729 158.729772 
Q 547.658729 159.183499 548.108729 159.637225 
Q 548.558729 160.090952 548.108729 160.544678 
Q 547.658729 160.998405 548.108729 161.448405 
z
" style="fill:#ffffff;opacity:0.5;stroke:#808080;stroke-linejoin:miter;"/>
    </g>
    <!-- 54.05 -->
    <g style="fill:#262626;" transform="translate(549.458729 156.248092)scale(0.18 -0.18)">
     <use xlink:href="#TimesNewRomanPSMT-53"/>
     <use x="50" xlink:href="#TimesNewRomanPSMT-52"/>
     <use x="100" xlink:href="#TimesNewRomanPSMT-46"/>
     <use x="125" xlink:href="#TimesNewRomanPSMT-48"/>
     <use x="175" xlink:href="#TimesNewRomanPSMT-53"/>
    </g>
   </g>
   <g id="text_35">
    <g id="patch_23">
     <path d="M 667.667957 161.448405 
Q 668.117957 161.898405 668.558582 161.448405 
Q 668.999207 160.998405 669.439832 161.448405 
Q 669.880457 161.898405 670.321082 161.448405 
Q 670.761707 160.998405 671.202332 161.448405 
Q 671.642957 161.898405 672.083582 161.448405 
Q 672.524207 160.998405 672.964832 161.448405 
Q 673.405457 161.898405 673.846082 161.448405 
Q 674.286707 160.998405 674.727332 161.448405 
Q 675.167957 161.898405 675.608582 161.448405 
Q 676.049207 160.998405 676.489832 161.448405 
Q 676.930457 161.898405 677.371082 161.448405 
Q 677.811707 160.998405 678.252332 161.448405 
Q 678.692957 161.898405 679.133582 161.448405 
Q 679.574207 160.998405 680.014832 161.448405 
Q 680.455457 161.898405 680.896082 161.448405 
Q 681.336707 160.998405 681.777332 161.448405 
Q 682.217957 161.898405 682.658582 161.448405 
Q 683.099207 160.998405 683.539832 161.448405 
Q 683.980457 161.898405 684.421082 161.448405 
Q 684.861707 160.998405 685.302332 161.448405 
Q 685.742957 161.898405 686.183582 161.448405 
Q 686.624207 160.998405 687.064832 161.448405 
Q 687.505457 161.898405 687.946082 161.448405 
Q 688.386707 160.998405 688.827332 161.448405 
Q 689.267957 161.898405 689.708582 161.448405 
Q 690.149207 160.998405 690.589832 161.448405 
Q 691.030457 161.898405 691.471082 161.448405 
Q 691.911707 160.998405 692.352332 161.448405 
Q 692.792957 161.898405 693.233582 161.448405 
Q 693.674207 160.998405 694.114832 161.448405 
Q 694.555457 161.898405 694.996082 161.448405 
Q 695.436707 160.998405 695.877332 161.448405 
Q 696.317957 161.898405 696.758582 161.448405 
Q 697.199207 160.998405 697.639832 161.448405 
Q 698.080457 161.898405 698.521082 161.448405 
Q 698.961707 160.998405 699.402332 161.448405 
Q 699.842957 161.898405 700.283582 161.448405 
Q 700.724207 160.998405 701.164832 161.448405 
Q 701.605457 161.898405 702.046082 161.448405 
Q 702.486707 160.998405 702.927332 161.448405 
Q 703.367957 161.898405 703.808582 161.448405 
Q 704.249207 160.998405 704.689832 161.448405 
Q 705.130457 161.898405 705.571082 161.448405 
Q 706.011707 160.998405 706.452332 161.448405 
Q 706.892957 161.898405 707.333582 161.448405 
Q 707.774207 160.998405 708.214832 161.448405 
Q 708.655457 161.898405 709.096082 161.448405 
Q 709.536707 160.998405 709.977332 161.448405 
Q 710.417957 161.898405 710.867957 161.448405 
Q 711.317957 160.998405 710.867957 160.544678 
Q 710.417957 160.090952 710.867957 159.637225 
Q 711.317957 159.183499 710.867957 158.729772 
Q 710.417957 158.276046 710.867957 157.822319 
Q 711.317957 157.368592 710.867957 156.914866 
Q 710.417957 156.461139 710.867957 156.007413 
Q 711.317957 155.553686 710.867957 155.09996 
Q 710.417957 154.646233 710.867957 154.192507 
Q 711.317957 153.73878 710.867957 153.285053 
Q 710.417957 152.831327 710.867957 152.3776 
Q 711.317957 151.923874 710.867957 151.470147 
Q 710.417957 151.016421 710.867957 150.562694 
Q 711.317957 150.108967 710.867957 149.655241 
Q 710.417957 149.201514 710.867957 148.747788 
Q 711.317957 148.294061 710.867957 147.840335 
Q 710.417957 147.386608 710.867957 146.932882 
Q 711.317957 146.479155 710.867957 146.025428 
Q 710.417957 145.571702 710.867957 145.117975 
Q 711.317957 144.664249 710.867957 144.210522 
Q 710.417957 143.756796 710.867957 143.303069 
Q 711.317957 142.849342 710.867957 142.399342 
Q 710.417957 141.949343 709.977332 142.399342 
Q 709.536707 142.849342 709.096082 142.399342 
Q 708.655457 141.949343 708.214832 142.399342 
Q 707.774207 142.849342 707.333582 142.399342 
Q 706.892957 141.949343 706.452332 142.399342 
Q 706.011707 142.849342 705.571082 142.399342 
Q 705.130457 141.949343 704.689832 142.399342 
Q 704.249207 142.849342 703.808582 142.399342 
Q 703.367957 141.949343 702.927332 142.399342 
Q 702.486707 142.849342 702.046082 142.399342 
Q 701.605457 141.949343 701.164832 142.399342 
Q 700.724207 142.849342 700.283582 142.399342 
Q 699.842957 141.949343 699.402332 142.399342 
Q 698.961707 142.849342 698.521082 142.399342 
Q 698.080457 141.949343 697.639832 142.399342 
Q 697.199207 142.849342 696.758582 142.399342 
Q 696.317957 141.949343 695.877332 142.399342 
Q 695.436707 142.849342 694.996082 142.399342 
Q 694.555457 141.949343 694.114832 142.399342 
Q 693.674207 142.849342 693.233582 142.399342 
Q 692.792957 141.949343 692.352332 142.399342 
Q 691.911707 142.849342 691.471082 142.399342 
Q 691.030457 141.949343 690.589832 142.399342 
Q 690.149207 142.849342 689.708582 142.399342 
Q 689.267957 141.949343 688.827332 142.399342 
Q 688.386707 142.849342 687.946082 142.399342 
Q 687.505457 141.949343 687.064832 142.399342 
Q 686.624207 142.849342 686.183582 142.399342 
Q 685.742957 141.949343 685.302332 142.399342 
Q 684.861707 142.849342 684.421082 142.399342 
Q 683.980457 141.949343 683.539832 142.399342 
Q 683.099207 142.849342 682.658582 142.399342 
Q 682.217957 141.949343 681.777332 142.399342 
Q 681.336707 142.849342 680.896082 142.399342 
Q 680.455457 141.949343 680.014832 142.399342 
Q 679.574207 142.849342 679.133582 142.399342 
Q 678.692957 141.949343 678.252332 142.399342 
Q 677.811707 142.849342 677.371082 142.399342 
Q 676.930457 141.949343 676.489832 142.399342 
Q 676.049207 142.849342 675.608582 142.399342 
Q 675.167957 141.949343 674.727332 142.399342 
Q 674.286707 142.849342 673.846082 142.399342 
Q 673.405457 141.949343 672.964832 142.399342 
Q 672.524207 142.849342 672.083582 142.399342 
Q 671.642957 141.949343 671.202332 142.399342 
Q 670.761707 142.849342 670.321082 142.399342 
Q 669.880457 141.949343 669.439832 142.399342 
Q 668.999207 142.849342 668.558582 142.399342 
Q 668.117957 141.949343 667.667957 142.399342 
Q 667.217957 142.849342 667.667957 143.303069 
Q 668.117957 143.756796 667.667957 144.210522 
Q 667.217957 144.664249 667.667957 145.117975 
Q 668.117957 145.571702 667.667957 146.025428 
Q 667.217957 146.479155 667.667957 146.932882 
Q 668.117957 147.386608 667.667957 147.840335 
Q 667.217957 148.294061 667.667957 148.747788 
Q 668.117957 149.201514 667.667957 149.655241 
Q 667.217957 150.108967 667.667957 150.562694 
Q 668.117957 151.016421 667.667957 151.470147 
Q 667.217957 151.923874 667.667957 152.3776 
Q 668.117957 152.831327 667.667957 153.285053 
Q 667.217957 153.73878 667.667957 154.192507 
Q 668.117957 154.646233 667.667957 155.09996 
Q 667.217957 155.553686 667.667957 156.007413 
Q 668.117957 156.461139 667.667957 156.914866 
Q 667.217957 157.368592 667.667957 157.822319 
Q 668.117957 158.276046 667.667957 158.729772 
Q 667.217957 159.183499 667.667957 159.637225 
Q 668.117957 160.090952 667.667957 160.544678 
Q 667.217957 160.998405 667.667957 161.448405 
z
" style="fill:#ffffff;opacity:0.5;stroke:#808080;stroke-linejoin:miter;"/>
    </g>
    <!-- 54.05 -->
    <g style="fill:#262626;" transform="translate(669.017957 156.248092)scale(0.18 -0.18)">
     <use xlink:href="#TimesNewRomanPSMT-53"/>
     <use x="50" xlink:href="#TimesNewRomanPSMT-52"/>
     <use x="100" xlink:href="#TimesNewRomanPSMT-46"/>
     <use x="125" xlink:href="#TimesNewRomanPSMT-48"/>
     <use x="175" xlink:href="#TimesNewRomanPSMT-53"/>
    </g>
   </g>
   <g id="text_36">
    <g id="patch_24">
     <path d="M 787.227186 160.916181 
Q 787.677186 161.366181 788.117811 160.916181 
Q 788.558436 160.466181 788.999061 160.916181 
Q 789.439686 161.366181 789.880311 160.916181 
Q 790.320936 160.466181 790.761561 160.916181 
Q 791.202186 161.366181 791.642811 160.916181 
Q 792.083436 160.466181 792.524061 160.916181 
Q 792.964686 161.366181 793.405311 160.916181 
Q 793.845936 160.466181 794.286561 160.916181 
Q 794.727186 161.366181 795.167811 160.916181 
Q 795.608436 160.466181 796.049061 160.916181 
Q 796.489686 161.366181 796.930311 160.916181 
Q 797.370936 160.466181 797.811561 160.916181 
Q 798.252186 161.366181 798.692811 160.916181 
Q 799.133436 160.466181 799.574061 160.916181 
Q 800.014686 161.366181 800.455311 160.916181 
Q 800.895936 160.466181 801.336561 160.916181 
Q 801.777186 161.366181 802.217811 160.916181 
Q 802.658436 160.466181 803.099061 160.916181 
Q 803.539686 161.366181 803.980311 160.916181 
Q 804.420936 160.466181 804.861561 160.916181 
Q 805.302186 161.366181 805.742811 160.916181 
Q 806.183436 160.466181 806.624061 160.916181 
Q 807.064686 161.366181 807.505311 160.916181 
Q 807.945936 160.466181 808.386561 160.916181 
Q 808.827186 161.366181 809.267811 160.916181 
Q 809.708436 160.466181 810.149061 160.916181 
Q 810.589686 161.366181 811.030311 160.916181 
Q 811.470936 160.466181 811.911561 160.916181 
Q 812.352186 161.366181 812.792811 160.916181 
Q 813.233436 160.466181 813.674061 160.916181 
Q 814.114686 161.366181 814.555311 160.916181 
Q 814.995936 160.466181 815.436561 160.916181 
Q 815.877186 161.366181 816.317811 160.916181 
Q 816.758436 160.466181 817.199061 160.916181 
Q 817.639686 161.366181 818.080311 160.916181 
Q 818.520936 160.466181 818.961561 160.916181 
Q 819.402186 161.366181 819.842811 160.916181 
Q 820.283436 160.466181 820.724061 160.916181 
Q 821.164686 161.366181 821.605311 160.916181 
Q 822.045936 160.466181 822.486561 160.916181 
Q 822.927186 161.366181 823.367811 160.916181 
Q 823.808436 160.466181 824.249061 160.916181 
Q 824.689686 161.366181 825.130311 160.916181 
Q 825.570936 160.466181 826.011561 160.916181 
Q 826.452186 161.366181 826.892811 160.916181 
Q 827.333436 160.466181 827.774061 160.916181 
Q 828.214686 161.366181 828.655311 160.916181 
Q 829.095936 160.466181 829.536561 160.916181 
Q 829.977186 161.366181 830.427186 160.916181 
Q 830.877186 160.466181 830.427186 160.012454 
Q 829.977186 159.558728 830.427186 159.105001 
Q 830.877186 158.651275 830.427186 158.197548 
Q 829.977186 157.743822 830.427186 157.290095 
Q 830.877186 156.836368 830.427186 156.382642 
Q 829.977186 155.928915 830.427186 155.475189 
Q 830.877186 155.021462 830.427186 154.567736 
Q 829.977186 154.114009 830.427186 153.660283 
Q 830.877186 153.206556 830.427186 152.752829 
Q 829.977186 152.299103 830.427186 151.845376 
Q 830.877186 151.39165 830.427186 150.937923 
Q 829.977186 150.484197 830.427186 150.03047 
Q 830.877186 149.576743 830.427186 149.123017 
Q 829.977186 148.66929 830.427186 148.215564 
Q 830.877186 147.761837 830.427186 147.308111 
Q 829.977186 146.854384 830.427186 146.400658 
Q 830.877186 145.946931 830.427186 145.493204 
Q 829.977186 145.039478 830.427186 144.585751 
Q 830.877186 144.132025 830.427186 143.678298 
Q 829.977186 143.224572 830.427186 142.770845 
Q 830.877186 142.317118 830.427186 141.867118 
Q 829.977186 141.417118 829.536561 141.867118 
Q 829.095936 142.317118 828.655311 141.867118 
Q 828.214686 141.417118 827.774061 141.867118 
Q 827.333436 142.317118 826.892811 141.867118 
Q 826.452186 141.417118 826.011561 141.867118 
Q 825.570936 142.317118 825.130311 141.867118 
Q 824.689686 141.417118 824.249061 141.867118 
Q 823.808436 142.317118 823.367811 141.867118 
Q 822.927186 141.417118 822.486561 141.867118 
Q 822.045936 142.317118 821.605311 141.867118 
Q 821.164686 141.417118 820.724061 141.867118 
Q 820.283436 142.317118 819.842811 141.867118 
Q 819.402186 141.417118 818.961561 141.867118 
Q 818.520936 142.317118 818.080311 141.867118 
Q 817.639686 141.417118 817.199061 141.867118 
Q 816.758436 142.317118 816.317811 141.867118 
Q 815.877186 141.417118 815.436561 141.867118 
Q 814.995936 142.317118 814.555311 141.867118 
Q 814.114686 141.417118 813.674061 141.867118 
Q 813.233436 142.317118 812.792811 141.867118 
Q 812.352186 141.417118 811.911561 141.867118 
Q 811.470936 142.317118 811.030311 141.867118 
Q 810.589686 141.417118 810.149061 141.867118 
Q 809.708436 142.317118 809.267811 141.867118 
Q 808.827186 141.417118 808.386561 141.867118 
Q 807.945936 142.317118 807.505311 141.867118 
Q 807.064686 141.417118 806.624061 141.867118 
Q 806.183436 142.317118 805.742811 141.867118 
Q 805.302186 141.417118 804.861561 141.867118 
Q 804.420936 142.317118 803.980311 141.867118 
Q 803.539686 141.417118 803.099061 141.867118 
Q 802.658436 142.317118 802.217811 141.867118 
Q 801.777186 141.417118 801.336561 141.867118 
Q 800.895936 142.317118 800.455311 141.867118 
Q 800.014686 141.417118 799.574061 141.867118 
Q 799.133436 142.317118 798.692811 141.867118 
Q 798.252186 141.417118 797.811561 141.867118 
Q 797.370936 142.317118 796.930311 141.867118 
Q 796.489686 141.417118 796.049061 141.867118 
Q 795.608436 142.317118 795.167811 141.867118 
Q 794.727186 141.417118 794.286561 141.867118 
Q 793.845936 142.317118 793.405311 141.867118 
Q 792.964686 141.417118 792.524061 141.867118 
Q 792.083436 142.317118 791.642811 141.867118 
Q 791.202186 141.417118 790.761561 141.867118 
Q 790.320936 142.317118 789.880311 141.867118 
Q 789.439686 141.417118 788.999061 141.867118 
Q 788.558436 142.317118 788.117811 141.867118 
Q 787.677186 141.417118 787.227186 141.867118 
Q 786.777186 142.317118 787.227186 142.770845 
Q 787.677186 143.224572 787.227186 143.678298 
Q 786.777186 144.132025 787.227186 144.585751 
Q 787.677186 145.039478 787.227186 145.493204 
Q 786.777186 145.946931 787.227186 146.400658 
Q 787.677186 146.854384 787.227186 147.308111 
Q 786.777186 147.761837 787.227186 148.215564 
Q 787.677186 148.66929 787.227186 149.123017 
Q 786.777186 149.576743 787.227186 150.03047 
Q 787.677186 150.484197 787.227186 150.937923 
Q 786.777186 151.39165 787.227186 151.845376 
Q 787.677186 152.299103 787.227186 152.752829 
Q 786.777186 153.206556 787.227186 153.660283 
Q 787.677186 154.114009 787.227186 154.567736 
Q 786.777186 155.021462 787.227186 155.475189 
Q 787.677186 155.928915 787.227186 156.382642 
Q 786.777186 156.836368 787.227186 157.290095 
Q 787.677186 157.743822 787.227186 158.197548 
Q 786.777186 158.651275 787.227186 159.105001 
Q 787.677186 159.558728 787.227186 160.012454 
Q 786.777186 160.466181 787.227186 160.916181 
z
" style="fill:#ffffff;opacity:0.5;stroke:#808080;stroke-linejoin:miter;"/>
    </g>
    <!-- 54.21 -->
    <g style="fill:#262626;" transform="translate(788.577186 155.715868)scale(0.18 -0.18)">
     <use xlink:href="#TimesNewRomanPSMT-53"/>
     <use x="50" xlink:href="#TimesNewRomanPSMT-52"/>
     <use x="100" xlink:href="#TimesNewRomanPSMT-46"/>
     <use x="125" xlink:href="#TimesNewRomanPSMT-50"/>
     <use x="175" xlink:href="#TimesNewRomanPSMT-49"/>
    </g>
   </g>
   <g id="legend_2">
    <g id="patch_25">
     <path d="M 735.066797 71.029219 
L 833.290547 71.029219 
Q 836.890547 71.029219 836.890547 67.429219 
L 836.890547 18.328594 
Q 836.890547 14.728594 833.290547 14.728594 
L 735.066797 14.728594 
Q 731.466797 14.728594 731.466797 18.328594 
L 731.466797 67.429219 
Q 731.466797 71.029219 735.066797 71.029219 
z
" style="fill:#ffffff;opacity:0.8;stroke:#cccccc;stroke-linejoin:miter;"/>
    </g>
    <g id="patch_26">
     <path d="M 738.666797 34.528594 
L 774.666797 34.528594 
L 774.666797 21.928594 
L 738.666797 21.928594 
z
" style="fill:#f5deb3;stroke:#ffffff;stroke-linejoin:miter;"/>
    </g>
    <g id="text_37">
     <!-- Bar-1 -->
     <g style="fill:#262626;" transform="translate(789.066797 34.528594)scale(0.18 -0.18)">
      <defs>
       <path d="M 46.1875 33.796875 
Q 53.078125 32.328125 56.5 29.109375 
Q 61.234375 24.609375 61.234375 18.109375 
Q 61.234375 13.1875 58.109375 8.671875 
Q 54.984375 4.15625 49.53125 2.078125 
Q 44.09375 0 32.90625 0 
L 1.65625 0 
L 1.65625 1.8125 
L 4.15625 1.8125 
Q 8.296875 1.8125 10.109375 4.4375 
Q 11.234375 6.15625 11.234375 11.71875 
L 11.234375 54.5 
Q 11.234375 60.640625 9.8125 62.25 
Q 7.90625 64.40625 4.15625 64.40625 
L 1.65625 64.40625 
L 1.65625 66.21875 
L 30.28125 66.21875 
Q 38.28125 66.21875 43.109375 65.046875 
Q 50.4375 63.28125 54.296875 58.8125 
Q 58.15625 54.34375 58.15625 48.53125 
Q 58.15625 43.5625 55.125 39.625 
Q 52.09375 35.6875 46.1875 33.796875 
z
M 20.609375 36.421875 
Q 22.40625 36.078125 24.71875 35.90625 
Q 27.046875 35.75 29.828125 35.75 
Q 36.96875 35.75 40.546875 37.28125 
Q 44.140625 38.8125 46.046875 41.984375 
Q 47.953125 45.171875 47.953125 48.921875 
Q 47.953125 54.734375 43.21875 58.828125 
Q 38.484375 62.9375 29.390625 62.9375 
Q 24.515625 62.9375 20.609375 61.859375 
z
M 20.609375 4.78125 
Q 26.265625 3.46875 31.78125 3.46875 
Q 40.625 3.46875 45.265625 7.4375 
Q 49.90625 11.421875 49.90625 17.28125 
Q 49.90625 21.140625 47.796875 24.703125 
Q 45.703125 28.265625 40.96875 30.3125 
Q 36.234375 32.375 29.25 32.375 
Q 26.21875 32.375 24.0625 32.265625 
Q 21.921875 32.171875 20.609375 31.9375 
z
" id="TimesNewRomanPSMT-66"/>
       <path d="M 28.46875 6.453125 
Q 21.578125 1.125 19.828125 0.296875 
Q 17.1875 -0.921875 14.203125 -0.921875 
Q 9.578125 -0.921875 6.5625 2.25 
Q 3.5625 5.421875 3.5625 10.59375 
Q 3.5625 13.875 5.03125 16.265625 
Q 7.03125 19.578125 11.984375 22.5 
Q 16.9375 25.4375 28.46875 29.640625 
L 28.46875 31.390625 
Q 28.46875 38.09375 26.34375 40.578125 
Q 24.21875 43.0625 20.171875 43.0625 
Q 17.09375 43.0625 15.28125 41.40625 
Q 13.421875 39.75 13.421875 37.59375 
L 13.53125 34.765625 
Q 13.53125 32.515625 12.375 31.296875 
Q 11.234375 30.078125 9.375 30.078125 
Q 7.5625 30.078125 6.421875 31.34375 
Q 5.28125 32.625 5.28125 34.8125 
Q 5.28125 39.015625 9.578125 42.53125 
Q 13.875 46.046875 21.625 46.046875 
Q 27.59375 46.046875 31.390625 44.046875 
Q 34.28125 42.53125 35.640625 39.3125 
Q 36.53125 37.203125 36.53125 30.71875 
L 36.53125 15.53125 
Q 36.53125 9.125 36.765625 7.6875 
Q 37.015625 6.25 37.578125 5.765625 
Q 38.140625 5.28125 38.875 5.28125 
Q 39.65625 5.28125 40.234375 5.609375 
Q 41.265625 6.25 44.1875 9.1875 
L 44.1875 6.453125 
Q 38.71875 -0.875 33.734375 -0.875 
Q 31.34375 -0.875 29.921875 0.78125 
Q 28.515625 2.4375 28.46875 6.453125 
z
M 28.46875 9.625 
L 28.46875 26.65625 
Q 21.09375 23.734375 18.953125 22.515625 
Q 15.09375 20.359375 13.421875 18.015625 
Q 11.765625 15.671875 11.765625 12.890625 
Q 11.765625 9.375 13.859375 7.046875 
Q 15.96875 4.734375 18.703125 4.734375 
Q 22.40625 4.734375 28.46875 9.625 
z
" id="TimesNewRomanPSMT-97"/>
       <path d="M 16.21875 46.046875 
L 16.21875 35.984375 
Q 21.828125 46.046875 27.734375 46.046875 
Q 30.421875 46.046875 32.171875 44.40625 
Q 33.9375 42.78125 33.9375 40.625 
Q 33.9375 38.71875 32.65625 37.390625 
Q 31.390625 36.078125 29.640625 36.078125 
Q 27.9375 36.078125 25.8125 37.765625 
Q 23.6875 39.453125 22.65625 39.453125 
Q 21.78125 39.453125 20.75 38.484375 
Q 18.5625 36.46875 16.21875 31.890625 
L 16.21875 10.453125 
Q 16.21875 6.734375 17.140625 4.828125 
Q 17.78125 3.515625 19.390625 2.640625 
Q 21 1.765625 24.03125 1.765625 
L 24.03125 0 
L 1.125 0 
L 1.125 1.765625 
Q 4.546875 1.765625 6.203125 2.828125 
Q 7.421875 3.609375 7.90625 5.328125 
Q 8.15625 6.15625 8.15625 10.0625 
L 8.15625 27.390625 
Q 8.15625 35.203125 7.828125 36.6875 
Q 7.515625 38.1875 6.65625 38.859375 
Q 5.8125 39.546875 4.546875 39.546875 
Q 3.03125 39.546875 1.125 38.8125 
L 0.640625 40.578125 
L 14.15625 46.046875 
z
" id="TimesNewRomanPSMT-114"/>
      </defs>
      <use xlink:href="#TimesNewRomanPSMT-66"/>
      <use x="66.699219" xlink:href="#TimesNewRomanPSMT-97"/>
      <use x="111.083984" xlink:href="#TimesNewRomanPSMT-114"/>
      <use x="142.384766" xlink:href="#TimesNewRomanPSMT-45"/>
      <use x="175.685547" xlink:href="#TimesNewRomanPSMT-49"/>
     </g>
    </g>
    <g id="patch_27">
     <path d="M 738.666797 59.978906 
L 774.666797 59.978906 
L 774.666797 47.378906 
L 738.666797 47.378906 
z
" style="fill:url(#hfa024a9b8c);stroke:#ffffff;stroke-linejoin:miter;"/>
    </g>
    <g id="text_38">
     <!-- Bar-2 -->
     <g style="fill:#262626;" transform="translate(789.066797 59.978906)scale(0.18 -0.18)">
      <use xlink:href="#TimesNewRomanPSMT-66"/>
      <use x="66.699219" xlink:href="#TimesNewRomanPSMT-97"/>
      <use x="111.083984" xlink:href="#TimesNewRomanPSMT-114"/>
      <use x="142.384766" xlink:href="#TimesNewRomanPSMT-45"/>
      <use x="175.685547" xlink:href="#TimesNewRomanPSMT-50"/>
     </g>
    </g>
   </g>
  </g>
 </g>
 <defs>
  <clipPath id="pe95fe0e248">
   <rect height="332.64" width="355.090909" x="64.690547" y="5.728594"/>
  </clipPath>
  <clipPath id="p48a2255735">
   <rect height="332.64" width="355.090909" x="490.799638" y="5.728594"/>
  </clipPath>
 </defs>
 <defs>
  <pattern height="72" id="hfa024a9b8c" patternUnits="userSpaceOnUse" width="72" x="0" y="0">
   <rect fill="#ffa07a" height="73" width="73" x="0" y="0"/>
   <path d="M -36 36 
L 36 -36 
M -30 42 
L 42 -30 
M -24 48 
L 48 -24 
M -18 54 
L 54 -18 
M -12 60 
L 60 -12 
M -6 66 
L 66 -6 
M 0 72 
L 72 0 
M 6 78 
L 78 6 
M 12 84 
L 84 12 
M 18 90 
L 90 18 
M 24 96 
L 96 24 
M 30 102 
L 102 30 
M 36 108 
L 108 36 
" style="fill:#ffffff;stroke:#ffffff;stroke-linecap:butt;stroke-linejoin:miter;stroke-width:1.0;"/>
  </pattern>
 </defs>
</svg>
